<?xml version="1.0" encoding="utf-8"?>
<!-- Generator: Adobe Illustrator 16.0.3, SVG Export Plug-In . SVG Version: 6.00 Build 0)  -->
<!DOCTYPE svg PUBLIC "-//W3C//DTD SVG 1.1//EN" "http://www.w3.org/Graphics/SVG/1.1/DTD/svg11.dtd">
<svg version="1.1" id="Capa_1" xmlns="http://www.w3.org/2000/svg" xmlns:xlink="http://www.w3.org/1999/xlink" x="0px" y="0px"
	 width="20.959px" height="20.962px" viewBox="486.358 486.966 20.959 20.962"
	 enable-background="new 486.358 486.966 20.959 20.962" xml:space="preserve">
<g>
	<path fill="#FFFFFF" d="M504.247,492.248h-0.573v-2.213c0-1.692-1.379-3.069-3.071-3.069h-7.532c-1.691,0-3.072,1.377-3.072,3.069
		v2.213h-0.57c-1.693,0-3.07,1.378-3.07,3.071v4.911c0,1.693,1.377,3.072,3.07,3.072h0.57v2.781c0,1.017,0.827,1.844,1.843,1.844
		h9.991c1.015,0,1.842-0.827,1.842-1.844v-2.781h0.573c1.693,0,3.069-1.379,3.069-3.072v-4.911
		C507.317,493.626,505.941,492.248,504.247,492.248z M491.229,490.037c0-1.016,0.825-1.843,1.84-1.843h7.533
		c1.016,0,1.842,0.827,1.842,1.843v2.213h-11.215V490.037z M502.444,506.084c0,0.339-0.274,0.615-0.611,0.615h-9.991
		c-0.337,0-0.611-0.276-0.611-0.615v-6.057h11.214V506.084z M506.089,500.231c0,1.017-0.827,1.842-1.842,1.842h-0.571v-2.045h0.366
		c0.338,0,0.612-0.275,0.612-0.615c0-0.339-0.274-0.615-0.612-0.615h-14.411c-0.339,0-0.612,0.276-0.612,0.615
		c0,0.34,0.273,0.615,0.612,0.615h0.366v2.045h-0.57c-1.017,0-1.843-0.825-1.843-1.842v-4.911c0-1.017,0.826-1.843,1.843-1.843
		h14.818c1.016,0,1.842,0.826,1.842,1.843v4.911H506.089z"/>
	<path fill="#FFFFFF" d="M498.474,501.419h-3.276c-0.339,0-0.611,0.273-0.611,0.614c0,0.338,0.272,0.611,0.611,0.611h3.276
		c0.339,0,0.612-0.273,0.612-0.611C499.088,501.693,498.813,501.419,498.474,501.419z"/>
	<path fill="#FFFFFF" d="M498.474,504.039h-3.276c-0.339,0-0.611,0.274-0.611,0.613s0.272,0.612,0.611,0.612h3.276
		c0.339,0,0.612-0.273,0.612-0.612C499.088,504.314,498.813,504.039,498.474,504.039z"/>
	<path fill="#FFFFFF" d="M491.596,494.866h-1.965c-0.339,0-0.612,0.275-0.612,0.615c0,0.339,0.273,0.615,0.612,0.615h1.965
		c0.339,0,0.614-0.276,0.614-0.615C492.21,495.142,491.935,494.866,491.596,494.866z"/>
</g>
</svg>
