<?xml version="1.0" encoding="utf-8"?>
<!-- Generator: Adobe Illustrator 16.0.3, SVG Export Plug-In . SVG Version: 6.00 Build 0)  -->
<!DOCTYPE svg PUBLIC "-//W3C//DTD SVG 1.1//EN" "http://www.w3.org/Graphics/SVG/1.1/DTD/svg11.dtd">
<svg version="1.1" id="Layer_1" xmlns="http://www.w3.org/2000/svg" xmlns:xlink="http://www.w3.org/1999/xlink" x="0px" y="0px"
	 width="39.686px" height="39.684px" viewBox="0 0 39.686 39.684" enable-background="new 0 0 39.686 39.684" xml:space="preserve">
<path fill="#46B978" d="M6.763,12.403c0.335-0.917,0.757-1.8,1.307-2.628c0.541-0.814,1.247-1.605,2.007-2.229
	c1.271-1.045,2.637-2.03,4.136-2.721c1.602-0.735,3.308-1.045,5.025-1.363c0.25-0.047,0.492-0.233,0.679-0.028
	c0.231,0.259,0.016,1.03,0.017,1.348c0.002,0.553,0.002,1.105,0,1.658c-0.001,1.076-0.006,2.151-0.005,3.229c0,2.989,0,5.979,0,8.97
	c0,0.081,0,1.946,0,1.946c-0.013,0-14.871,0-14.871,0C5.565,17.886,5.814,15.01,6.763,12.403z"/>
<circle fill="#FFFFFF" cx="19.455" cy="20.009" r="10.323"/>
<path fill="#292D35" d="M2.66,26.937c0.896,2.313,2.275,4.482,4.144,6.35c1.93,1.93,4.185,3.341,6.589,4.232
	c3.208,1.19,6.685,1.462,10.011,0.813c3.475-0.682,6.785-2.359,9.472-5.045c7.188-7.188,7.188-18.887,0-26.07
	c-7.188-7.188-18.882-7.188-26.069,0C4.196,9.823,2.535,13.029,1.82,16.4C1.075,19.896,1.357,23.57,2.66,26.937z M29.988,10.098
	c5.597,5.601,5.598,14.706,0,20.301c-1.922,1.922-4.258,3.186-6.724,3.785c-4.713,1.15-9.901-0.108-13.575-3.785
	c-3.734-3.733-4.979-9.033-3.726-13.812c0.622-2.379,1.864-4.629,3.726-6.49C15.284,4.501,24.392,4.501,29.988,10.098z"/>
<path fill="#F2D175" d="M109.26,30.48c-0.335-0.917-0.742-2.55-1.292-3.379c-0.541-0.814-1.086-1.563-1.844-2.188
	c-1.273-1.044-3.223-2.624-4.722-3.313c-1.602-0.733-3.652-0.242-5.375-0.563c-0.25-0.047-0.764,0.358-0.764,0.358
	s-0.019,2.452-0.017,3.007c0.001,1.075,0.006,2.15,0.005,3.229c0,2.989,0,5.979,0,8.97c0,0.08,0,1.945,0,1.945
	c0.013,0,14.871,0,14.871,0C109.616,35.854,110.209,33.086,109.26,30.48z"/>
<path fill="#46B978" d="M1.859-46.299c0.335-0.917,2.467-1.763,3.018-2.592c0.541-0.814,1.247-1.604,2.005-2.229
	c1.271-1.044,2.169-2.576,3.669-3.265c1.602-0.736,3.774-0.5,5.495-0.819c0.25-0.047,0.676-0.029,0.676-0.029
	s0.018,2.453,0.016,3.007c-0.001,1.075-0.006,2.151-0.004,3.229c0,2.989,0,5.979,0,8.969c0,0.08,0,1.945,0,1.945
	c-0.013,0-14.871,0-14.871,0C2.369-40.778,0.911-43.692,1.859-46.299z"/>
<g>
	<g>
		<path fill="#292D35" d="M71.331-14.133h-0.658c0.109-0.312,0.172-0.641,0.172-0.975c0-1.532-1.184-2.791-2.686-2.913
			c-0.556-0.629-1.341-0.985-2.188-0.985s-1.631,0.355-2.187,0.985c-0.66,0.053-1.248,0.334-1.71,0.752v-2.225
			c0-0.27-0.22-0.486-0.488-0.486c-1.423,0-2.673,0.898-3.169,2.177c-0.005,0-0.013-0.004-0.018-0.004
			c-0.147,0.022-0.255,0.052-0.346,0.145c-0.947,0.957-1.089,2.411-0.447,3.528h-0.893c-0.271,0-0.487,0.218-0.487,0.486
			c0,2.985,1.945,5.666,4.872,6.777v1.02c0,0.271,0.218,0.487,0.487,0.487h4.872c0.27,0,0.487-0.218,0.487-0.487v-1.02
			c2.929-1.111,4.871-3.794,4.871-6.777C71.82-13.915,71.601-14.133,71.331-14.133z M64.023-17.056c0.153,0,0.297-0.072,0.389-0.192
			c0.748-0.992,2.373-0.992,3.121,0c0.092,0.123,0.235,0.192,0.389,0.192c1.074,0,1.949,0.875,1.949,1.949
			c0,0.348-0.113,0.68-0.287,0.975h-2.148l0.779-0.585c0.215-0.162,0.258-0.466,0.096-0.681c-0.16-0.216-0.465-0.262-0.682-0.099
			L66.46-14.62v-0.976c0-0.268-0.219-0.484-0.486-0.484c-0.27,0-0.488,0.217-0.488,0.484v0.976l-1.169-0.877
			c-0.215-0.16-0.52-0.116-0.683,0.098c-0.162,0.215-0.117,0.519,0.098,0.681l0.78,0.585h-2.149
			c-0.173-0.295-0.286-0.627-0.286-0.975C62.074-16.183,62.949-17.056,64.023-17.056z M61.099-18.956v3.646l-1.863-1.863
			C59.46-18.073,60.193-18.77,61.099-18.956z M58.447-16.584l2.451,2.45h-2.057c-0.031-0.026-0.063-0.049-0.094-0.08
			C58.111-14.855,58.01-15.835,58.447-16.584z M66.306-7.677c-0.199,0.064-0.334,0.252-0.334,0.462v0.878h-3.896v-0.878
			c0-0.21-0.137-0.396-0.335-0.462c-2.55-0.841-4.313-3.006-4.519-5.48h13.603C70.618-10.683,68.855-8.518,66.306-7.677z"/>
	</g>
</g>
<g id="Page-1_1_">
	<g id="_x30_08---Coffee-and-Croissant">
		<g id="Shape_6_">
			<path fill="#292D35" d="M27.206,24.797h-1.752c0.656-0.283,1.215-0.755,1.604-1.355c0.082-0.138,0.093-0.307,0.028-0.454
				c-0.018-0.038-0.039-0.085-0.063-0.137c0.308-0.445,0.538-0.94,0.679-1.463c0.12-0.567,0.147-1.149,0.081-1.726
				c-0.026-0.243-0.191-0.449-0.423-0.53c-0.264-1.264-0.618-1.466-0.738-1.533c-0.152-0.087-0.337-0.101-0.5-0.035
				c-0.643,0.245-0.646,0.82-0.647,1.327c0,0.122-0.004,0.245-0.012,0.369c-0.25,0.058-0.451,0.242-0.532,0.485
				c-0.052,0.151-0.124,0.296-0.214,0.428c-0.107-0.058-0.218-0.108-0.331-0.152c-0.107-0.04-0.226-0.039-0.333,0.001l-1.334,0.51
				c-0.104,0.041-0.192,0.117-0.247,0.215c-0.062,0.112-0.117,0.229-0.167,0.348c-0.069-0.021-0.138-0.047-0.204-0.077v-2.975
				c0-0.287-0.232-0.52-0.52-0.52h-6.235c-0.287,0-0.52,0.233-0.52,0.52v0.354c-0.24-0.062-0.487-0.094-0.735-0.094
				c-1.863,0-1.863,2.047-1.863,2.72c0,1.504,0.731,2.476,1.863,2.476c0.3-0.001,0.598-0.044,0.886-0.126
				c0.192,0.576,0.563,1.076,1.061,1.426h-2.16c-0.15-0.013-0.299,0.034-0.414,0.132c-0.114,0.098-0.186,0.237-0.197,0.388v0.52
				c0,0.583,0.576,1.039,1.312,1.039h11.926c0.735,0,1.312-0.456,1.312-1.039v-0.52c-0.011-0.15-0.082-0.29-0.196-0.388
				C27.505,24.831,27.357,24.784,27.206,24.797L27.206,24.797z M26.307,18.048c0.02-0.01,0.043-0.009,0.062,0.003
				c0.044,0.024,0.258,0.188,0.454,1.049c-0.219,0.009-0.502,0.028-0.832,0.071c0.004-0.097,0.005-0.191,0.005-0.279
				C25.996,18.353,26.023,18.156,26.307,18.048z M25.427,19.903c0.026-0.077,0.093-0.133,0.174-0.146
				c0.048-0.01,0.096-0.018,0.148-0.025c0.454-0.077,0.913-0.117,1.373-0.121h0.017c0.063-0.004,0.12,0.041,0.129,0.104
				c0.06,0.518,0.036,1.041-0.069,1.551c-0.098,0.371-0.25,0.726-0.451,1.052c-0.394-0.728-0.934-1.364-1.587-1.87
				C25.273,20.277,25.362,20.094,25.427,19.903z M22.919,21.01l1.303-0.498c1.391,0.548,2.234,2.332,2.391,2.666
				c-0.144,0.248-0.606,0.875-1.795,1.329c-0.408,0.16-0.838,0.258-1.275,0.29h-0.343c-0.181-0.009-0.36-0.041-0.533-0.097
				c-0.015-0.063-0.035-0.15-0.055-0.256C22.488,23.801,22.272,22.184,22.919,21.01L22.919,21.01z M21.337,24.396
				c0.256,0.124,0.522,0.227,0.796,0.305c0.008,0.036,0.016,0.067,0.021,0.097H20.88C21.046,24.68,21.199,24.545,21.337,24.396
				L21.337,24.396z M22.031,24.121c-0.35-0.115-0.679-0.286-0.975-0.506c-0.388-0.324-0.718-0.711-0.976-1.146
				c-0.031-0.066-0.012-0.146,0.047-0.189c0.004-0.003,0.007-0.006,0.01-0.01c0.358-0.309,0.739-0.589,1.141-0.839
				c0.042-0.026,0.083-0.054,0.133-0.083c0.061-0.039,0.139-0.041,0.2-0.005c0.163,0.104,0.339,0.184,0.523,0.238
				C21.933,22.413,21.898,23.277,22.031,24.121L22.031,24.121z M19.782,20.569c0.008-0.027,0.029-0.049,0.057-0.058
				c0.275-0.104,0.401,0.021,0.723,0.432c0.055,0.07,0.114,0.146,0.177,0.222c-0.282,0.189-0.516,0.366-0.692,0.508
				C19.777,21.07,19.728,20.709,19.782,20.569L19.782,20.569z M14.826,21.776c-0.231,0.104-0.482,0.159-0.735,0.163
				c-0.198,0-0.304-0.473-0.304-0.917c0-1.162,0.176-1.162,0.304-1.162c0.266-0.01,0.527,0.075,0.735,0.241V21.776z M12.748,21.023
				c0-1.025,0.153-2.202,1.343-2.202c0.25-0.001,0.498,0.038,0.735,0.115v0.558c-0.231-0.104-0.482-0.156-0.735-0.153
				c-0.761,0-0.824,0.795-0.824,1.681c0,0.899,0.308,1.437,0.824,1.437c0.25-0.002,0.499-0.046,0.735-0.13v0.13
				c0.001,0.136,0.012,0.271,0.033,0.405c-0.25,0.074-0.508,0.112-0.768,0.114C13.25,22.978,12.748,22.246,12.748,21.023
				L12.748,21.023z M15.406,22.985c-0.041-0.173-0.061-0.35-0.061-0.526v-4.417h6.235v2.765c-0.136-0.013-0.272,0.015-0.394,0.078
				c-0.075-0.086-0.147-0.174-0.217-0.262c-0.294-0.378-0.659-0.848-1.316-0.598c-0.165,0.061-0.295,0.189-0.356,0.354
				c-0.135,0.349-0.018,0.898,0.354,1.671c-0.137,0.21-0.141,0.479-0.012,0.692c0.291,0.487,0.662,0.921,1.099,1.283
				c0.045,0.035,0.093,0.067,0.14,0.1c-0.436,0.431-1.023,0.672-1.635,0.671h-1.559C16.594,24.801,15.647,24.047,15.406,22.985
				L15.406,22.985z M27.297,25.836c0,0.281-0.363,0.52-0.792,0.52H14.579c-0.429,0-0.792-0.238-0.792-0.52V25.34
				c0.027-0.017,0.059-0.024,0.091-0.023h13.328c0.032-0.001,0.063,0.007,0.091,0.023V25.836z"/>
			<path fill="#292D35" d="M26.505,26.925H14.579c-0.764,0-1.362-0.479-1.362-1.089v-0.52c0.012-0.166,0.09-0.319,0.214-0.426
				c0.125-0.104,0.287-0.159,0.451-0.144h2.004c-0.43-0.338-0.76-0.799-0.942-1.315c-0.28,0.076-0.567,0.114-0.854,0.115
				c-1.162,0-1.913-0.991-1.913-2.525c0-0.685,0-2.77,1.913-2.77c0.23,0,0.46,0.027,0.686,0.08v-0.29c0-0.314,0.255-0.57,0.569-0.57
				h6.235c0.314,0,0.569,0.255,0.569,0.57v2.943c0.04,0.017,0.082,0.033,0.126,0.048c0.046-0.106,0.097-0.211,0.151-0.311
				c0.061-0.107,0.157-0.191,0.272-0.237l1.335-0.51c0.118-0.044,0.25-0.044,0.368-0.001c0.101,0.039,0.2,0.084,0.297,0.134
				c0.076-0.118,0.138-0.245,0.184-0.378c0.083-0.25,0.28-0.437,0.531-0.508c0.007-0.11,0.01-0.221,0.01-0.33
				c0.002-0.498,0.004-1.116,0.68-1.374c0.173-0.068,0.38-0.056,0.542,0.039c0.121,0.067,0.488,0.271,0.757,1.539
				c0.235,0.093,0.402,0.311,0.43,0.562c0.067,0.582,0.039,1.167-0.082,1.742c-0.141,0.521-0.365,1.01-0.67,1.457l0.05,0.111
				c0.071,0.162,0.06,0.349-0.03,0.5c-0.355,0.549-0.843,0.987-1.422,1.28h1.527c0.014-0.002,0.031-0.002,0.049-0.002
				c0.146,0,0.287,0.052,0.397,0.146c0.124,0.106,0.202,0.26,0.214,0.422v0.523C27.866,26.447,27.269,26.925,26.505,26.925z
				 M13.83,24.845c-0.123,0-0.241,0.043-0.333,0.122c-0.104,0.089-0.169,0.218-0.179,0.354v0.516c0,0.555,0.555,0.989,1.262,0.989
				h11.926c0.707,0,1.262-0.435,1.262-0.989v-0.52c-0.01-0.132-0.075-0.261-0.179-0.35c-0.093-0.079-0.211-0.122-0.333-0.122
				c-0.016,0-0.03,0.001-0.045,0.002h-1.998l0.223-0.096c0.649-0.28,1.196-0.743,1.581-1.337c0.072-0.122,0.082-0.274,0.024-0.407
				l-0.074-0.161l0.017-0.023c0.307-0.444,0.532-0.931,0.672-1.447c0.118-0.561,0.146-1.136,0.079-1.707
				c-0.024-0.223-0.177-0.415-0.39-0.488l-0.026-0.009l-0.006-0.028c-0.26-1.247-0.602-1.437-0.714-1.5
				c-0.14-0.08-0.311-0.09-0.457-0.032c-0.612,0.233-0.614,0.79-0.616,1.28c0,0.123-0.004,0.248-0.012,0.372l-0.002,0.037
				l-0.036,0.009c-0.235,0.054-0.42,0.223-0.496,0.452c-0.054,0.157-0.128,0.305-0.221,0.44l-0.025,0.037l-0.039-0.021
				c-0.105-0.056-0.215-0.106-0.326-0.15c-0.093-0.034-0.2-0.034-0.297,0.001l-1.334,0.51c-0.094,0.036-0.172,0.105-0.221,0.192
				c-0.06,0.108-0.115,0.225-0.165,0.343l-0.018,0.042l-0.043-0.014c-0.074-0.023-0.146-0.05-0.21-0.079l-0.029-0.014v-3.007
				c0-0.259-0.211-0.47-0.47-0.47h-6.235c-0.259,0-0.47,0.211-0.47,0.47v0.418l-0.063-0.016c-0.237-0.061-0.48-0.092-0.723-0.092
				c-1.813,0-1.813,2.01-1.813,2.67c0,1.474,0.712,2.426,1.813,2.426c0.293-0.001,0.587-0.043,0.873-0.124l0.046-0.014l0.015,0.046
				c0.188,0.563,0.558,1.06,1.042,1.4l0.129,0.091h-2.318C13.859,24.846,13.844,24.845,13.83,24.845z M26.505,26.406H14.579
				c-0.457,0-0.842-0.261-0.842-0.569v-0.524l0.024-0.015c0.033-0.02,0.072-0.03,0.112-0.03h13.333c0,0,0,0,0.001,0
				c0.044,0,0.083,0.011,0.116,0.03l0.023,0.015v0.524C27.347,26.145,26.961,26.406,26.505,26.406z M13.837,25.372v0.464
				c0,0.25,0.347,0.47,0.743,0.47h11.926c0.396,0,0.742-0.22,0.742-0.47v-0.464c-0.012-0.004-0.023-0.006-0.035-0.006H13.873
				C13.861,25.366,13.848,25.368,13.837,25.372z M23.199,24.847c-0.188-0.009-0.373-0.042-0.549-0.099l-0.026-0.009l-0.01-0.043
				c-0.015-0.063-0.034-0.145-0.052-0.243c-0.125-0.646-0.344-2.277,0.312-3.468l0.015-0.025h0.021l1.312-0.502l0.019,0.007
				c1.281,0.505,2.117,2.051,2.417,2.691l0.012,0.024l-0.014,0.022c-0.146,0.253-0.616,0.891-1.82,1.351
				c-0.412,0.162-0.847,0.261-1.289,0.293H23.199z M22.708,24.661c0.159,0.049,0.325,0.077,0.493,0.086h0.341
				c0.43-0.032,0.854-0.129,1.257-0.287c1.14-0.436,1.602-1.027,1.757-1.285c-0.303-0.641-1.111-2.116-2.334-2.609l-1.269,0.485
				c-0.629,1.16-0.415,2.751-0.293,3.384C22.677,24.526,22.695,24.602,22.708,24.661z M22.215,24.847h-1.492l0.128-0.091
				c0.163-0.114,0.314-0.247,0.449-0.395l0.025-0.027l0.033,0.017c0.256,0.124,0.521,0.225,0.788,0.302l0.029,0.008l0.016,0.072
				c0.004,0.02,0.009,0.037,0.012,0.055L22.215,24.847z M21.031,24.747h1.062l-0.001-0.007c-0.252-0.074-0.502-0.169-0.742-0.284
				C21.25,24.561,21.144,24.658,21.031,24.747z M19.247,24.847h-1.563c-1.01,0-1.881-0.612-2.228-1.524v0.095l-0.099-0.421
				c-0.042-0.178-0.062-0.358-0.062-0.538v-4.466h6.335v2.87l-0.055-0.005c-0.12-0.01-0.253,0.015-0.365,0.072l-0.035,0.019
				l-0.026-0.029c-0.07-0.082-0.143-0.168-0.218-0.264c-0.237-0.305-0.505-0.649-0.924-0.649c-0.106,0-0.219,0.022-0.335,0.067
				c-0.152,0.056-0.271,0.174-0.327,0.325c-0.13,0.336-0.015,0.869,0.352,1.632l0.012,0.025l-0.015,0.023
				c-0.127,0.194-0.131,0.439-0.011,0.64c0.289,0.483,0.655,0.911,1.088,1.271c0.037,0.029,0.078,0.057,0.119,0.085l0.066,0.046
				l-0.043,0.042C20.466,24.604,19.875,24.847,19.247,24.847z M15.444,22.921l0.012,0.052c0.236,1.045,1.149,1.774,2.221,1.774
				h1.567c0.584,0,1.134-0.218,1.556-0.614c-0.031-0.021-0.062-0.044-0.092-0.067c-0.442-0.367-0.815-0.803-1.11-1.297
				c-0.133-0.221-0.133-0.501-0.002-0.721c-0.369-0.776-0.481-1.327-0.343-1.686c0.066-0.178,0.207-0.318,0.386-0.384
				c0.127-0.049,0.252-0.073,0.37-0.073c0.468,0,0.765,0.381,1.002,0.688c0.066,0.083,0.129,0.158,0.19,0.23
				c0.099-0.046,0.207-0.069,0.315-0.069c0.006,0,0.011,0,0.016,0v-2.663h-6.136v4.367C15.396,22.613,15.411,22.768,15.444,22.921z
				 M22.094,24.195l-0.078-0.025c-0.355-0.117-0.688-0.29-0.989-0.514c-0.396-0.331-0.728-0.721-0.988-1.16
				c-0.043-0.092-0.017-0.197,0.06-0.255c0.367-0.317,0.752-0.602,1.154-0.851l0.038-0.024c0.029-0.02,0.061-0.039,0.096-0.06
				c0.071-0.047,0.176-0.05,0.251-0.005c0.16,0.102,0.332,0.18,0.513,0.233l0.045,0.014l-0.011,0.046
				c-0.202,0.829-0.236,1.677-0.103,2.52L22.094,24.195z M20.171,22.309c0.001,0-0.005,0.006-0.012,0.012
				c-0.04,0.029-0.053,0.083-0.032,0.128c0.252,0.425,0.577,0.807,0.962,1.129c0.269,0.199,0.564,0.357,0.881,0.47
				c-0.119-0.813-0.083-1.631,0.105-2.431c-0.172-0.056-0.337-0.133-0.49-0.23c-0.042-0.024-0.103-0.022-0.146,0.005
				c-0.036,0.021-0.066,0.04-0.095,0.059l-0.039,0.024C20.908,21.722,20.527,22.002,20.171,22.309L20.171,22.309z M14.092,23.028
				c-0.873,0-1.394-0.749-1.394-2.005l0,0l0,0c0-0.001,0-0.001,0-0.001c0-1.048,0.159-2.25,1.393-2.25h0.014
				c0.25,0,0.498,0.039,0.737,0.117l0.034,0.011v0.671l-0.07-0.032c-0.22-0.099-0.453-0.149-0.695-0.149h-0.02
				c-0.715,0-0.774,0.772-0.774,1.631c0,0.868,0.29,1.387,0.774,1.387c0.245-0.002,0.487-0.045,0.719-0.127l0.066-0.024v0.201
				c0.001,0.134,0.012,0.268,0.032,0.397l0.007,0.043l-0.042,0.013C14.62,22.987,14.358,23.026,14.092,23.028z M12.798,21.022
				c0,1.193,0.484,1.906,1.293,1.906c0.242-0.002,0.481-0.036,0.712-0.101c-0.017-0.12-0.026-0.244-0.027-0.369v-0.061
				c-0.222,0.071-0.452,0.108-0.685,0.11c-0.547,0-0.874-0.556-0.874-1.486c0-0.912,0.066-1.731,0.874-1.731l0.02,0
				c0.23,0,0.454,0.043,0.666,0.128v-0.446c-0.219-0.067-0.445-0.102-0.672-0.102h-0.013C12.945,18.871,12.798,20.021,12.798,21.022
				z M26.744,22.415l-0.041-0.076c-0.393-0.726-0.922-1.35-1.573-1.854l-0.037-0.028l0.025-0.038
				c0.108-0.163,0.196-0.342,0.262-0.532c0.031-0.094,0.113-0.163,0.212-0.18c0.048-0.01,0.097-0.018,0.149-0.025
				c0.452-0.077,0.917-0.118,1.381-0.122h0.017c0,0,0,0,0.001,0c0.093,0,0.166,0.063,0.178,0.146
				c0.061,0.525,0.036,1.052-0.07,1.567c-0.1,0.378-0.253,0.736-0.457,1.068L26.744,22.415z M25.228,20.435
				c0.622,0.489,1.134,1.088,1.521,1.78c0.177-0.302,0.312-0.626,0.4-0.964c0.104-0.503,0.128-1.02,0.068-1.532
				c-0.005-0.034-0.035-0.06-0.071-0.06h-0.024c-0.458,0.004-0.917,0.044-1.364,0.121c-0.054,0.008-0.101,0.016-0.147,0.025
				c-0.064,0.011-0.116,0.055-0.137,0.114C25.411,20.102,25.328,20.275,25.228,20.435z M14.092,21.989
				c-0.244,0-0.355-0.501-0.355-0.967c0-1.121,0.16-1.212,0.354-1.212c0.013,0,0.027-0.001,0.042-0.001
				c0.263,0,0.52,0.09,0.725,0.253l0.019,0.015v1.731l-0.029,0.014C14.61,21.928,14.356,21.985,14.092,21.989z M14.133,19.909
				c-0.013,0-0.026,0-0.04,0c-0.097,0-0.256,0-0.256,1.112c0,0.47,0.117,0.867,0.254,0.867c0.238-0.004,0.469-0.053,0.686-0.146
				v-1.618C14.593,19.986,14.365,19.909,14.133,19.909z M20.027,21.751l-0.026-0.059c-0.241-0.539-0.337-0.955-0.265-1.143
				c0.011-0.038,0.044-0.072,0.088-0.087c0.31-0.116,0.47,0.057,0.777,0.448c0.055,0.07,0.114,0.146,0.177,0.222l0.034,0.042
				l-0.045,0.031c-0.239,0.159-0.471,0.33-0.689,0.505L20.027,21.751z M20.004,20.526c-0.043,0-0.091,0.011-0.147,0.032
				c-0.014,0.005-0.023,0.014-0.026,0.024c-0.048,0.124-0.008,0.45,0.235,1.011c0.192-0.152,0.393-0.3,0.6-0.439
				c-0.05-0.062-0.099-0.123-0.143-0.181C20.279,20.662,20.156,20.526,20.004,20.526z M25.938,19.228l0.003-0.059
				c0.004-0.096,0.005-0.19,0.005-0.277c0.001-0.513,0.016-0.766,0.344-0.891c0.021-0.013,0.074-0.015,0.107,0.009
				c0.059,0.032,0.276,0.212,0.475,1.079l0.014,0.059l-0.061,0.002c-0.281,0.012-0.552,0.035-0.827,0.071L25.938,19.228z
				 M26.335,18.091c-0.002,0-0.004,0-0.005,0.001c-0.251,0.096-0.284,0.247-0.285,0.799c0,0.071,0,0.146-0.003,0.222
				c0.239-0.029,0.475-0.049,0.718-0.061c-0.193-0.813-0.394-0.945-0.416-0.958L26.335,18.091z"/>
		</g>
		<g id="Shape_5_">
			<path fill="#292D35" d="M17.944,16.483c0,0.144,0.116,0.26,0.26,0.26c0.143,0,0.26-0.116,0.26-0.26
				c-0.002-0.183,0.071-0.359,0.203-0.487c0.422-0.459,0.422-1.165,0-1.624c-0.132-0.128-0.205-0.304-0.203-0.487
				c0-0.144-0.117-0.26-0.26-0.26c-0.144,0-0.26,0.116-0.26,0.26c-0.002,0.301,0.111,0.592,0.317,0.812
				c0.13,0.129,0.203,0.304,0.203,0.487c0,0.183-0.073,0.358-0.203,0.487C18.055,15.891,17.942,16.181,17.944,16.483z"/>
			<path fill="#292D35" d="M18.204,16.792c-0.171,0-0.31-0.139-0.31-0.31c-0.003-0.315,0.115-0.616,0.33-0.846
				c0.121-0.12,0.19-0.285,0.19-0.453c0-0.168-0.069-0.333-0.188-0.451c-0.217-0.232-0.334-0.533-0.332-0.848
				c0-0.17,0.139-0.309,0.31-0.309s0.31,0.139,0.31,0.31c-0.001,0.169,0.067,0.334,0.188,0.452c0.438,0.476,0.438,1.219,0.002,1.693
				c-0.123,0.12-0.191,0.284-0.19,0.453C18.514,16.654,18.375,16.792,18.204,16.792z M18.204,13.675c-0.116,0-0.21,0.094-0.21,0.21
				c-0.002,0.29,0.105,0.566,0.304,0.778c0.137,0.136,0.216,0.327,0.216,0.521c0,0.195-0.079,0.385-0.218,0.523
				c-0.197,0.21-0.304,0.486-0.302,0.776c0,0.116,0.094,0.21,0.21,0.21s0.21-0.094,0.21-0.21c-0.002-0.196,0.077-0.387,0.218-0.523
				c0.399-0.435,0.399-1.118-0.002-1.554c-0.139-0.134-0.219-0.325-0.216-0.521C18.414,13.769,18.32,13.675,18.204,13.675z"/>
		</g>
		<g id="Shape_4_">
			<path fill="#292D35" d="M16.385,16.483c0,0.144,0.117,0.26,0.26,0.26c0.144,0,0.26-0.116,0.26-0.26
				c-0.002-0.183,0.071-0.359,0.203-0.487c0.422-0.459,0.422-1.165,0-1.624c-0.131-0.128-0.205-0.304-0.203-0.487
				c0-0.144-0.117-0.26-0.26-0.26c-0.143,0-0.26,0.116-0.26,0.26c-0.002,0.301,0.111,0.592,0.317,0.812
				c0.13,0.129,0.203,0.304,0.203,0.487c0,0.183-0.073,0.358-0.203,0.487C16.496,15.891,16.383,16.181,16.385,16.483z"/>
			<path fill="#292D35" d="M16.645,16.792c-0.171,0-0.31-0.139-0.31-0.31c-0.002-0.315,0.115-0.616,0.33-0.846
				c0.121-0.12,0.19-0.285,0.19-0.453c0-0.168-0.069-0.333-0.188-0.451c-0.216-0.232-0.334-0.533-0.332-0.848
				c0-0.17,0.139-0.309,0.31-0.309s0.31,0.139,0.31,0.31c-0.001,0.169,0.067,0.333,0.188,0.452c0.438,0.476,0.438,1.219,0.002,1.693
				c-0.123,0.12-0.191,0.284-0.189,0.453C16.955,16.654,16.816,16.792,16.645,16.792z M16.645,13.675c-0.116,0-0.21,0.094-0.21,0.21
				c-0.001,0.29,0.106,0.566,0.304,0.778c0.137,0.136,0.216,0.327,0.216,0.521c0,0.195-0.079,0.385-0.218,0.523
				c-0.196,0.21-0.304,0.486-0.302,0.776c0,0.116,0.094,0.21,0.21,0.21s0.21-0.094,0.21-0.21c-0.002-0.195,0.077-0.386,0.218-0.523
				c0.399-0.435,0.399-1.118-0.002-1.554c-0.139-0.135-0.218-0.326-0.216-0.521C16.855,13.769,16.76,13.675,16.645,13.675z"/>
		</g>
		<g id="Shape_3_">
			<path fill="#292D35" d="M19.503,16.483c0,0.144,0.116,0.26,0.26,0.26s0.26-0.116,0.26-0.26c-0.002-0.183,0.071-0.359,0.203-0.487
				c0.422-0.459,0.422-1.165,0-1.624c-0.132-0.128-0.205-0.304-0.203-0.487c0-0.144-0.116-0.26-0.26-0.26s-0.26,0.116-0.26,0.26
				c-0.002,0.301,0.111,0.592,0.316,0.812c0.13,0.129,0.203,0.304,0.203,0.487c0,0.183-0.073,0.358-0.203,0.487
				C19.615,15.891,19.501,16.181,19.503,16.483z"/>
			<path fill="#292D35" d="M19.763,16.792c-0.171,0-0.31-0.139-0.31-0.31c-0.002-0.315,0.115-0.616,0.33-0.846
				c0.121-0.12,0.19-0.285,0.19-0.453c0-0.168-0.069-0.333-0.188-0.451c-0.216-0.232-0.333-0.533-0.331-0.848
				c0-0.17,0.139-0.309,0.31-0.309s0.31,0.139,0.31,0.31c-0.001,0.169,0.067,0.334,0.188,0.452c0.438,0.476,0.438,1.219,0.002,1.693
				c-0.123,0.12-0.191,0.284-0.19,0.453C20.073,16.654,19.934,16.792,19.763,16.792z M19.763,13.675c-0.116,0-0.21,0.094-0.21,0.21
				c-0.001,0.29,0.106,0.566,0.303,0.778c0.137,0.136,0.216,0.327,0.216,0.521c0,0.195-0.079,0.385-0.218,0.523
				c-0.196,0.21-0.303,0.486-0.302,0.776c0,0.116,0.094,0.21,0.21,0.21s0.21-0.094,0.21-0.21c-0.002-0.196,0.077-0.387,0.218-0.523
				c0.399-0.435,0.399-1.118-0.002-1.554c-0.139-0.134-0.219-0.325-0.216-0.521C19.973,13.769,19.879,13.675,19.763,13.675z"/>
		</g>
	</g>
</g>
</svg>
