<?xml version="1.0" encoding="utf-8"?>
<!-- Generator: Adobe Illustrator 16.0.3, SVG Export Plug-In . SVG Version: 6.00 Build 0)  -->
<!DOCTYPE svg PUBLIC "-//W3C//DTD SVG 1.1//EN" "http://www.w3.org/Graphics/SVG/1.1/DTD/svg11.dtd">
<svg version="1.1" id="Layer_1" xmlns="http://www.w3.org/2000/svg" xmlns:xlink="http://www.w3.org/1999/xlink" x="0px" y="0px"
	 width="39.686px" height="39.684px" viewBox="0 0 39.686 39.684" enable-background="new 0 0 39.686 39.684" xml:space="preserve">
<path fill="#F2D175" d="M27.687,7.171c0.917,0.335,1.8,0.757,2.628,1.307c0.816,0.541,1.607,1.247,2.229,2.005
	c1.045,1.273,2.03,2.64,2.721,4.139c0.735,1.602,1.045,3.308,1.363,5.024c0.047,0.25,0.23,0.492,0.025,0.68
	c-0.259,0.23-1.027,0.016-1.346,0.017c-0.553,0.002-1.104,0.002-1.66,0c-1.073-0.001-2.148-0.006-3.229-0.005
	c-2.989,0-5.979,0-8.97,0c-0.081,0-1.946,0-1.946,0c0-0.013,0-14.871,0-14.871C22.204,5.972,25.08,6.221,27.687,7.171z"/>
<circle fill="#FFFFFF" cx="19.455" cy="20.009" r="10.323"/>
<path fill="#292D35" d="M13.154,3.068C10.84,3.966,8.671,5.345,6.806,7.212c-1.93,1.93-3.341,4.185-4.234,6.589
	c-1.188,3.208-1.462,6.683-0.811,10.011c0.68,3.476,2.359,6.785,5.045,9.473c7.188,7.188,18.884,7.188,26.07,0
	c7.188-7.188,7.188-18.885,0-26.069c-2.607-2.61-5.814-4.272-9.187-4.986C20.194,1.483,16.521,1.764,13.154,3.068z M29.992,30.396
	c-5.602,5.598-14.706,5.599-20.303,0c-1.922-1.922-3.184-4.258-3.782-6.724c-1.15-4.713,0.107-9.901,3.782-13.575
	c3.735-3.736,9.035-4.979,13.813-3.726c2.379,0.622,4.629,1.861,6.49,3.726C35.589,15.692,35.589,24.8,29.992,30.396z"/>
<path fill="#F2D175" d="M109.26,30.48c-0.335-0.917-0.742-2.55-1.292-3.379c-0.541-0.813-1.086-1.563-1.844-2.188
	c-1.273-1.044-3.224-2.624-4.723-3.313c-1.602-0.732-3.651-0.242-5.375-0.563c-0.25-0.047-0.764,0.357-0.764,0.357
	s-0.019,2.452-0.017,3.007c0.001,1.075,0.006,2.15,0.005,3.229c0,2.989,0,5.979,0,8.97c0,0.08,0,1.945,0,1.945
	c0.013,0,14.871,0,14.871,0C109.616,35.854,110.209,33.086,109.26,30.48z"/>
<g>
	<g>
		<g>
			<path fill="#292D35" d="M72.345,43.965c-1.64-1.353-3.799-1.891-5.924-1.478c-2.77,0.537-4.992,2.761-5.531,5.532
				c-0.412,2.123,0.125,4.283,1.479,5.923c1.352,1.641,3.346,2.583,5.471,2.583c1.237,0,2.265-0.929,2.39-2.162l0.108-1.073
				c0.07-0.714,0.641-1.284,1.354-1.354l1.071-0.107c1.235-0.126,2.164-1.154,2.164-2.391
				C74.928,47.313,73.987,45.319,72.345,43.965z M72.679,50.945l-1.072,0.107c-1.134,0.111-2.038,1.017-2.15,2.15l-0.107,1.071
				c-0.079,0.778-0.727,1.364-1.509,1.364c-1.858,0-3.604-0.822-4.788-2.258s-1.654-3.329-1.293-5.191
				c0.47-2.421,2.412-4.362,4.831-4.831c0.413-0.08,0.825-0.12,1.235-0.12c1.442,0,2.839,0.49,3.957,1.411
				c1.436,1.185,2.259,2.93,2.259,4.79C74.042,50.218,73.456,50.866,72.679,50.945z"/>
		</g>
	</g>
	<g>
		<g>
			<path fill="#292D35" d="M66.955,45.893c-1.466,0-2.658,1.193-2.658,2.658s1.193,2.658,2.658,2.658
				c1.466,0,2.656-1.193,2.656-2.658S68.42,45.893,66.955,45.893z M66.955,50.323c-0.978,0-1.772-0.796-1.772-1.772
				s0.795-1.771,1.772-1.771c0.977,0,1.771,0.796,1.771,1.771C68.727,49.528,67.932,50.323,66.955,50.323z"/>
		</g>
	</g>
	<g>
		<g>
			<path fill="#292D35" d="M66.955,47.222c-0.732,0-1.33,0.596-1.33,1.329c0,0.245,0.198,0.443,0.442,0.443s0.443-0.199,0.443-0.443
				s0.198-0.443,0.443-0.443c0.244,0,0.441-0.197,0.441-0.443C67.396,47.419,67.198,47.222,66.955,47.222z"/>
		</g>
	</g>
</g>
<g>
	<path fill="#292D35" d="M26.128,13.924c-0.172-0.185-0.416-0.292-0.669-0.292h-8.306c-0.252,0-0.496,0.107-0.668,0.292
		c-0.17,0.184-0.256,0.432-0.237,0.681l0.328,4.389c-0.792-0.214-1.635-0.218-2.428-0.012c-0.023-0.021-0.048-0.043-0.072-0.064
		c0.355-0.416,0.859-1.162,0.859-2.042c0-1.307-1.12-2.323-1.167-2.366c-0.142-0.126-0.372-0.126-0.514,0
		c-0.047,0.042-1.167,1.059-1.167,2.369c0.013,0.442,0.126,0.875,0.33,1.265c-0.315-0.063-0.64-0.094-0.983-0.094c0,0,0,0-0.001,0
		c-0.212,0-0.385,0.173-0.385,0.385c0,0.212,0.172,0.385,0.391,0.385c0.651-0.032,1.288,0.133,1.839,0.472
		c-1.676,0.792-2.748,2.471-2.75,4.34c-0.001,1.68,0.894,3.26,2.336,4.122c0.744,0.445,1.596,0.681,2.464,0.681c0,0,0,0,0,0
		c0.754,0,1.505-0.181,2.177-0.522c0.269,0.329,0.673,0.522,1.103,0.522h5.393c0.741-0.001,1.37-0.58,1.432-1.318l0.934-12.511
		C26.384,14.356,26.297,14.108,26.128,13.924z M25.597,14.548l-0.184,2.463h-8.212l-0.185-2.465
		c-0.003-0.037,0.009-0.073,0.034-0.099c0.026-0.029,0.063-0.044,0.102-0.044h8.309c0.039,0,0.075,0.016,0.102,0.045
		C25.588,14.474,25.601,14.51,25.597,14.548z M12.857,16.876c0-0.633,0.404-1.216,0.654-1.517c0.279,0.333,0.655,0.896,0.655,1.517
		c0,0.62-0.375,1.184-0.655,1.517C13.261,18.092,12.857,17.509,12.857,16.876z M24.45,26.625h-5.373
		c0.893-1.112,1.248-2.582,0.953-3.985c-0.31-1.469-1.301-2.716-2.66-3.351l-0.113-1.509h8.098l-0.657,8.81
		C24.618,26.613,24.535,26.624,24.45,26.625z M13.911,19.863c0.117,0.154,0.208,0.323,0.27,0.499c0.047,0.163,0.2,0.277,0.37,0.277
		c0.032,0,0.067-0.005,0.106-0.015c0.204-0.06,0.322-0.272,0.262-0.481c-0.058-0.173-0.134-0.338-0.227-0.495
		c0.228-0.039,0.458-0.058,0.687-0.058c1.87,0,3.496,1.269,3.952,3.084c0.54,2.146-0.703,4.305-2.83,4.915
		c-0.368,0.105-0.747,0.159-1.126,0.159c-1.774,0-3.333-1.136-3.879-2.825C10.823,22.846,11.883,20.641,13.911,19.863z
		 M18.307,27.395h6.144c0.029,0,0.058-0.001,0.086-0.003c-0.122,0.168-0.319,0.272-0.536,0.272h-5.396
		c-0.16,0-0.315-0.061-0.434-0.166C18.217,27.465,18.262,27.43,18.307,27.395z M18.609,28.31L18.609,28.31L18.609,28.31
		L18.609,28.31z"/>
	<circle fill="#292D35" cx="11.952" cy="23.632" r="0.385"/>
	<circle fill="#292D35" cx="12.471" cy="22.333" r="0.385"/>
	<circle fill="#292D35" cx="12.991" cy="23.372" r="0.385"/>
	<circle fill="#292D35" cx="12.731" cy="24.671" r="0.385"/>
	<circle fill="#292D35" cx="12.991" cy="25.971" r="0.385"/>
	<circle fill="#292D35" cx="13.771" cy="25.191" r="0.385"/>
	<circle fill="#292D35" cx="14.031" cy="24.152" r="0.385"/>
	<circle fill="#292D35" cx="14.031" cy="26.75" r="0.385"/>
	<circle fill="#292D35" cx="14.81" cy="25.971" r="0.385"/>
</g>
</svg>
