<?xml version="1.0" encoding="utf-8"?>
<!-- Generator: Adobe Illustrator 16.0.3, SVG Export Plug-In . SVG Version: 6.00 Build 0)  -->
<!DOCTYPE svg PUBLIC "-//W3C//DTD SVG 1.1//EN" "http://www.w3.org/Graphics/SVG/1.1/DTD/svg11.dtd">
<svg version="1.1" id="Capa_1" xmlns="http://www.w3.org/2000/svg" xmlns:xlink="http://www.w3.org/1999/xlink" x="0px" y="0px"
	 width="39.685px" height="33.488px" viewBox="236.157 239.258 39.685 33.488"
	 enable-background="new 236.157 239.258 39.685 33.488" xml:space="preserve">
<path d="M271.181,264.66h-12.489c-0.427,0-0.774,0.348-0.774,0.775h-19.73c-0.428,0-0.775,0.348-0.775,0.775
	c0,2.129,1.292,3.889,3.737,5.089c1.842,0.905,4.337,1.446,6.672,1.446h5.253c1.512,0,2.784-1.045,3.132-2.45h1.711v0.405
	c0,0.429,0.348,0.773,0.774,0.773h12.487c1.879,0,3.407-1.528,3.407-3.407C274.587,266.188,273.059,264.66,271.181,264.66
	L271.181,264.66z M255.526,268.744c-0.428,0-0.775,0.346-0.775,0.775c0,0.924-0.752,1.676-1.676,1.676h-5.253
	c-3.389,0-8.053-1.313-8.765-4.209h18.862v1.758H255.526z M271.181,269.924h-11.713v-3.713h11.711c1.025,0,1.858,0.834,1.858,1.856
	C273.037,269.092,272.204,269.924,271.181,269.924L271.181,269.924z"/>
<path d="M274.857,248.609c-0.687-0.73-1.652-1.148-2.653-1.148c-0.571,0-1.142,0.136-1.649,0.395
	c-0.275,0.14-0.904,0.316-1.509,0.46v-6.513c0-1.402-1.142-2.545-2.546-2.545h-27.796c-1.404,0-2.546,1.143-2.546,2.545v18.595
	c0,1.402,1.142,2.546,2.546,2.546h27.796c1.404,0,2.546-1.144,2.546-2.546v-6.522c0.595,0.137,1.194,0.303,1.442,0.435
	c0.526,0.282,1.117,0.429,1.717,0.429c0.059,0,0.118-0.001,0.177-0.004c1.822-0.087,3.34-1.581,3.453-3.402
	C275.899,250.316,275.551,249.349,274.857,248.609L274.857,248.609z M267.494,260.397c0,0.548-0.445,0.995-0.994,0.995h-27.797
	c-0.55,0-0.996-0.447-0.996-0.995v-18.595c0-0.548,0.446-0.995,0.996-0.995h27.796c0.55,0,0.995,0.447,0.995,0.995V260.397
	L267.494,260.397z M274.288,251.237L274.288,251.237c-0.065,1.043-0.936,1.9-1.981,1.95c-0.381,0.019-0.756-0.066-1.088-0.244
	c-0.509-0.272-1.5-0.514-2.174-0.657v-2.38c0.671-0.15,1.695-0.407,2.212-0.67c0.294-0.149,0.612-0.226,0.946-0.226
	c0.582,0,1.124,0.235,1.522,0.659C274.125,250.095,274.325,250.651,274.288,251.237L274.288,251.237z"/>
<path fill="#CCCCCC" d="M249.064,251.067c-0.838,0-1.52,0.683-1.52,1.521c0,0.837,0.683,1.52,1.52,1.52
	c0.838,0,1.52-0.682,1.52-1.52C250.584,251.75,249.902,251.067,249.064,251.067z"/>
<path fill="#DB5353" d="M257.156,244.721h-7.709c-2.956,0-5.36,2.405-5.36,5.36v2.039c0,2.956,2.404,5.36,5.36,5.36
	c2.357,0,4.414-1.512,5.118-3.763c0.101-0.323,0.4-0.544,0.74-0.544h1.852c2.33,0,4.227-1.896,4.227-4.226
	C261.382,246.617,259.487,244.721,257.156,244.721z M249.064,255.657c-1.693,0-3.07-1.377-3.07-3.07c0-1.693,1.377-3.07,3.07-3.07
	s3.07,1.377,3.07,3.07C252.134,254.28,250.757,255.657,249.064,255.657z"/>
<path d="M257.156,243.17h-7.709c-3.81,0-6.91,3.101-6.91,6.911v2.039c0,3.81,3.1,6.911,6.91,6.911c1.5,0,2.929-0.475,4.13-1.373
	c1.006-0.752,1.797-1.78,2.271-2.934h1.309c3.186,0,5.776-2.591,5.776-5.776S260.341,243.17,257.156,243.17z M257.156,253.172
	h-1.852c-0.339,0-0.639,0.221-0.74,0.544c-0.704,2.251-2.76,3.763-5.118,3.763c-2.956,0-5.36-2.404-5.36-5.36v-2.039
	c0-2.956,2.404-5.36,5.36-5.36h7.709c2.331,0,4.227,1.896,4.227,4.226C261.382,251.277,259.487,253.172,257.156,253.172z"/>
<path d="M249.064,249.517c-1.693,0-3.07,1.377-3.07,3.07c0,1.692,1.377,3.07,3.07,3.07s3.07-1.377,3.07-3.07
	C252.134,250.894,250.757,249.517,249.064,249.517z M249.064,254.107c-0.838,0-1.52-0.682-1.52-1.52c0-0.838,0.683-1.521,1.52-1.521
	c0.838,0,1.52,0.683,1.52,1.521C250.584,253.425,249.902,254.107,249.064,254.107z"/>
</svg>
