<?xml version="1.0" encoding="utf-8"?>
<!-- Generator: Adobe Illustrator 16.0.3, SVG Export Plug-In . SVG Version: 6.00 Build 0)  -->
<!DOCTYPE svg PUBLIC "-//W3C//DTD SVG 1.1//EN" "http://www.w3.org/Graphics/SVG/1.1/DTD/svg11.dtd">
<svg version="1.1" id="Capa_1" xmlns="http://www.w3.org/2000/svg" xmlns:xlink="http://www.w3.org/1999/xlink" x="0px" y="0px"
	 width="39.686px" height="33.487px" viewBox="236.157 239.258 39.686 33.487"
	 enable-background="new 236.157 239.258 39.686 33.487" xml:space="preserve">
<path d="M271.18,264.661h-12.488c-0.428,0-0.774,0.347-0.774,0.774h-19.729c-0.428,0-0.775,0.348-0.775,0.775
	c0,2.128,1.292,3.888,3.736,5.089c1.842,0.904,4.336,1.445,6.672,1.445h5.253c1.512,0,2.784-1.046,3.132-2.451h1.71v0.406
	c0,0.428,0.347,0.774,0.774,0.774h12.488c1.879,0,3.407-1.528,3.407-3.406C274.587,266.189,273.059,264.661,271.18,264.661
	L271.18,264.661z M255.526,268.743c-0.428,0-0.775,0.348-0.775,0.775c0,0.924-0.752,1.676-1.676,1.676h-5.253
	c-3.39,0-8.054-1.313-8.766-4.208h18.862v1.757H255.526z M271.18,269.925h-11.713v-3.714h11.713c1.023,0,1.856,0.833,1.856,1.857
	C273.036,269.092,272.203,269.925,271.18,269.925L271.18,269.925z"/>
<path d="M274.856,248.609c-0.685-0.729-1.651-1.148-2.652-1.148c-0.572,0-1.142,0.136-1.649,0.394
	c-0.275,0.141-0.905,0.316-1.509,0.46v-6.512c0-1.404-1.142-2.545-2.546-2.545h-27.797c-1.403,0-2.545,1.142-2.545,2.545v18.594
	c0,1.403,1.142,2.545,2.545,2.545h27.797c1.404,0,2.546-1.142,2.546-2.545v-6.522c0.595,0.137,1.194,0.303,1.442,0.435
	c0.526,0.282,1.117,0.429,1.717,0.429c0.059,0,0.117-0.001,0.177-0.004c1.822-0.087,3.34-1.582,3.454-3.402
	C275.899,250.316,275.551,249.349,274.856,248.609L274.856,248.609z M267.495,260.397c0,0.549-0.446,0.995-0.995,0.995h-27.798
	c-0.548,0-0.995-0.446-0.995-0.995v-18.594c0-0.549,0.447-0.995,0.995-0.995h27.797c0.549,0,0.996,0.446,0.996,0.995V260.397
	L267.495,260.397z M274.287,251.236L274.287,251.236c-0.064,1.043-0.936,1.9-1.98,1.95c-0.381,0.019-0.757-0.066-1.088-0.243
	c-0.509-0.272-1.501-0.514-2.174-0.657v-2.379c0.671-0.15,1.695-0.407,2.212-0.67c0.295-0.15,0.612-0.226,0.946-0.226
	c0.583,0,1.123,0.234,1.522,0.659C274.125,250.095,274.324,250.651,274.287,251.236L274.287,251.236z"/>
<path fill="#3DACD3" d="M244.225,250.314c0.286-0.339,0.736-0.847,1.322-1.423c-0.167-0.018-0.358-0.028-0.576-0.028h-1.533v0.455
	C243.439,249.698,243.507,250.11,244.225,250.314z"/>
<path fill="#3DACD3" d="M244.225,252.114c-0.719,0.205-0.787,0.617-0.787,0.997v0.454h1.533c0.218,0,0.409-0.01,0.576-0.028
	C244.961,252.961,244.511,252.453,244.225,252.114z"/>
<path fill="#3DACD3" d="M257.673,247.076c-1.205-0.608-2.388-0.917-3.515-0.917c-3.938,0-7.505,3.719-8.659,5.055
	c1.153,1.335,4.721,5.055,8.659,5.055c1.127,0,2.31-0.309,3.515-0.917c2.369-1.197,4.216-3.233,4.962-4.138
	C261.887,250.31,260.035,248.269,257.673,247.076z M257.156,253.186c0.302,0.303,0.302,0.793,0,1.096
	c-0.151,0.151-0.351,0.227-0.549,0.227s-0.396-0.076-0.548-0.227c-1.691-1.691-1.691-4.444,0-6.136c0.303-0.302,0.794-0.302,1.097,0
	c0.303,0.303,0.303,0.793,0,1.096C256.068,250.33,256.068,252.099,257.156,253.186z"/>
<path d="M258.372,245.692c-1.425-0.719-2.842-1.083-4.214-1.083c-2.815,0-5.372,1.516-7.232,3.041
	c-0.515-0.226-1.161-0.337-1.955-0.337h-2.308c-0.428,0-0.775,0.347-0.775,0.775v1.229c0,0.533,0.131,1.315,0.784,1.896
	c-0.653,0.58-0.784,1.362-0.784,1.896v1.23c0,0.428,0.347,0.775,0.775,0.775h2.308c0.794,0,1.439-0.111,1.955-0.337
	c1.86,1.526,4.417,3.042,7.232,3.042c1.372,0,2.79-0.364,4.214-1.083c3.429-1.731,5.779-4.931,5.878-5.066
	c0.197-0.272,0.197-0.64,0-0.912C264.152,250.623,261.801,247.424,258.372,245.692z M243.439,248.864h1.533
	c0.218,0,0.409,0.01,0.576,0.028c-0.586,0.576-1.036,1.084-1.322,1.423c-0.719-0.205-0.787-0.616-0.787-0.996V248.864z
	 M244.971,253.564h-1.533v-0.454c0-0.38,0.068-0.792,0.787-0.997c0.286,0.339,0.736,0.848,1.322,1.423
	C245.38,253.555,245.189,253.564,244.971,253.564z M257.673,255.353c-1.205,0.608-2.388,0.917-3.515,0.917
	c-3.938,0-7.505-3.72-8.659-5.055c1.154-1.335,4.721-5.055,8.659-5.055c1.127,0,2.311,0.309,3.515,0.917
	c2.362,1.193,4.214,3.233,4.963,4.139C261.889,252.12,260.042,254.156,257.673,255.353z"/>
<path d="M257.156,248.146c-0.303-0.302-0.794-0.302-1.097,0c-1.692,1.692-1.692,4.445,0,6.136c0.151,0.151,0.35,0.227,0.548,0.227
	s0.397-0.076,0.548-0.227c0.303-0.303,0.303-0.793,0-1.096c-1.087-1.087-1.087-2.856,0-3.944
	C257.458,248.939,257.458,248.449,257.156,248.146z"/>
</svg>
