<?xml version="1.0" encoding="utf-8"?>
<!-- Generator: Adobe Illustrator 16.0.3, SVG Export Plug-In . SVG Version: 6.00 Build 0)  -->
<!DOCTYPE svg PUBLIC "-//W3C//DTD SVG 1.1//EN" "http://www.w3.org/Graphics/SVG/1.1/DTD/svg11.dtd">
<svg version="1.1" id="Capa_1" xmlns="http://www.w3.org/2000/svg" xmlns:xlink="http://www.w3.org/1999/xlink" x="0px" y="0px"
	 width="526.474px" height="322.484px" viewBox="-81.892 104.098 526.474 322.484"
	 enable-background="new -81.892 104.098 526.474 322.484" xml:space="preserve">
<path fill="#282C34" d="M311.59,153.109c-1.564,0-14.345,1.282-14.345,1.282c-37.465,6.778-65.97,39.615-65.97,78.98
	c0,19.948,7.265,38.85,20.53,53.6l-5.429,11.195c-0.768,1.583-0.616,3.456,0.395,4.896c1.011,1.438,2.722,2.211,4.473,2.032
	l20.292-2.139c7.979,4.595,16.68,7.763,25.709,9.395l9.69,1.15c1.546,0.089,3.098,0.134,4.652,0.134
	c44.286,0,80.315-36.005,80.315-80.263C391.905,189.114,355.875,153.109,311.59,153.109z M311.59,303.949
	c-12.887,0-25.495-3.5-36.463-10.122c-0.759-0.458-1.625-0.697-2.506-0.697c-0.169,0-0.338,0.009-0.508,0.026l-13.213,1.393
	l3.078-6.349c0.892-1.837,0.533-4.036-0.896-5.497c-12.972-13.263-20.117-30.782-20.117-49.332
	c0-38.916,31.682-70.577,70.623-70.577c38.942,0,70.624,31.662,70.624,70.577C382.213,272.288,350.531,303.949,311.59,303.949z"/>
<path fill="#21C87A" d="M332.839,205.192c-0.485,0-0.97,0.019-1.452,0.058c-4.127-6.809-11.643-11.162-19.797-11.162
	c-8.155,0-15.67,4.353-19.798,11.162c-0.48-0.039-0.965-0.058-1.452-0.058c-9.758,0-17.697,7.914-17.697,17.643
	c0,7.729,5.012,14.312,11.966,16.692l1.522,19.817c0.194,2.522,2.299,4.472,4.831,4.472h41.255c2.533,0,4.638-1.949,4.832-4.472
	l1.525-19.817c6.952-2.38,11.964-8.963,11.964-16.692C350.537,213.106,342.598,205.192,332.839,205.192L332.839,205.192z
	 M295.45,254.129l-1.085-14.114c2.194-0.511,4.271-1.436,6.118-2.723c3.384,1.846,7.213,2.836,11.106,2.836s7.723-0.99,11.106-2.836
	c1.847,1.287,3.924,2.212,6.12,2.723l-1.087,14.114H295.45z M332.839,230.792c-2.329,0-4.54-1.006-6.064-2.762
	c-0.957-1.1-2.305-1.667-3.662-1.667c-1.074,0-2.155,0.355-3.054,1.083c-2.414,1.961-5.344,2.997-8.47,2.997
	c-3.125,0-6.054-1.037-8.47-2.997c-2.029-1.647-5.001-1.389-6.714,0.583c-1.524,1.755-3.735,2.762-6.065,2.762
	c-4.414,0-8.007-3.57-8.007-7.958s3.593-7.958,8.007-7.958c0.892,0,1.766,0.143,2.596,0.426c2.475,0.84,5.173-0.433,6.095-2.877
	c1.951-5.176,6.999-8.653,12.559-8.653c5.561,0,10.607,3.478,12.56,8.653c0.921,2.445,3.617,3.719,6.094,2.877
	c0.832-0.283,1.706-0.426,2.596-0.426c4.416,0,8.008,3.57,8.008,7.958S337.254,230.792,332.839,230.792z"/>
<text transform="matrix(1 0 0 1 -425.3591 -164.8721)" font-family="'Somatic-Rounded'" font-size="149.0168">Yum();</text>
<path fill="#282C34" d="M50.413,271.944c-0.906-0.696-2.139-1.108-3.356-1.108c-1.68,0-3.207,0.732-4.188,2.009L7.852,317.263
	l-34.475-45.481c-1.062-1.38-2.667-2.176-4.396-2.176c-1.166,0-2.29,0.376-3.25,1.086c-1.093,0.843-1.813,2.114-2.003,3.566
	c-0.19,1.451,0.185,2.874,1.055,4.005l37.533,49.688v41.26c0,2.918,2.441,5.292,5.441,5.292c2.967,0,5.292-2.324,5.292-5.292
	v-41.305l38.309-48.342C53.177,277.2,52.767,273.845,50.413,271.944z"/>
<path fill="#282C34" d="M113.836,308.037c-2.214,0-5.739,2.49-5.739,5.441v27.271c0,12.825-9.326,22.872-21.232,22.872
	c-9.953,0-21.084-9.781-21.084-22.872v-28.463c0-2.797-2.862-5.44-5.889-5.44c-2.671,0-4.845,2.44-4.845,5.44v28.463
	c0,18.694,14.273,33.903,31.817,33.903c17.626,0,31.966-15.209,31.966-33.903v-27.271
	C118.83,310.479,116.59,308.037,113.836,308.037z"/>
<path fill="#282C34" d="M204.884,306.994c-7.003,0-13.44,2.506-18.125,7.058l-2.372,2.304l-2.435-2.237
	c-5.073-4.66-11.365-7.124-18.196-7.124c-4.197,0-8.283,0.979-12.146,2.909l-2.81,1.405l-1.699-2.645
	c-0.745-1.158-2.353-1.968-3.91-1.968c-2.848,0-5.441,2.664-5.441,5.59v56.925c0,2.77,2.594,5.292,5.441,5.292
	c3,0,5.44-2.374,5.44-5.292v-37.552c0-7.729,6.643-13.782,15.124-13.782c8.48,0,15.123,6.054,15.123,13.782v37.104
	c0,3.153,2.289,5.441,5.441,5.441c2.918,0,5.292-2.441,5.292-5.441v-37.104c0-7.729,6.708-13.782,15.271-13.782
	c8.175,0,14.826,6.183,14.826,13.782v37.104c0,3,2.508,5.441,5.59,5.441c3.066,0,5.292-2.288,5.292-5.441v-37.104
	C230.592,318.059,219.059,306.994,204.884,306.994z"/>
</svg>
