<?xml version="1.0" encoding="utf-8"?>
<!-- Generator: Adobe Illustrator 16.0.3, SVG Export Plug-In . SVG Version: 6.00 Build 0)  -->
<!DOCTYPE svg PUBLIC "-//W3C//DTD SVG 1.1//EN" "http://www.w3.org/Graphics/SVG/1.1/DTD/svg11.dtd">
<svg version="1.1" id="Layer_1" xmlns="http://www.w3.org/2000/svg" xmlns:xlink="http://www.w3.org/1999/xlink" x="0px" y="0px"
	 width="39.686px" height="39.684px" viewBox="0 0 39.686 39.684" enable-background="new 0 0 39.686 39.684" xml:space="preserve">
<circle fill="#FFFFFF" cx="19.455" cy="20.009" r="10.323"/>
<path fill="#292D35" d="M2.66,26.937c0.896,2.313,2.275,4.482,4.144,6.35c1.93,1.93,4.185,3.341,6.589,4.232
	c3.208,1.19,6.685,1.462,10.011,0.813c3.475-0.682,6.785-2.359,9.472-5.045c7.188-7.188,7.188-18.887,0-26.07
	c-7.188-7.188-18.882-7.188-26.069,0C4.196,9.823,2.535,13.029,1.82,16.4C1.075,19.896,1.357,23.57,2.66,26.937z M29.988,10.098
	c5.597,5.601,5.598,14.706,0,20.301c-1.922,1.922-4.258,3.186-6.724,3.785c-4.713,1.15-9.901-0.108-13.575-3.785
	c-3.734-3.733-4.979-9.033-3.726-13.812c0.622-2.379,1.864-4.629,3.726-6.49C15.284,4.501,24.392,4.501,29.988,10.098z"/>
<path fill="#F2D175" d="M109.26,30.48c-0.335-0.917-0.742-2.55-1.292-3.379c-0.541-0.814-1.086-1.563-1.844-2.188
	c-1.273-1.044-3.223-2.624-4.722-3.313c-1.602-0.733-3.652-0.242-5.375-0.563c-0.25-0.047-0.764,0.358-0.764,0.358
	s-0.019,2.452-0.017,3.007c0.001,1.075,0.006,2.15,0.005,3.229c0,2.989,0,5.979,0,8.97c0,0.08,0,1.945,0,1.945
	c0.013,0,14.871,0,14.871,0C109.616,35.854,110.209,33.086,109.26,30.48z"/>
<path fill="#46B978" d="M1.859-46.299c0.335-0.917,2.467-1.763,3.018-2.592c0.541-0.814,1.247-1.604,2.005-2.229
	c1.271-1.044,2.169-2.576,3.669-3.265c1.602-0.736,3.774-0.5,5.495-0.819c0.25-0.047,0.676-0.029,0.676-0.029
	s0.018,2.453,0.016,3.007c-0.001,1.075-0.006,2.151-0.004,3.229c0,2.989,0,5.979,0,8.969c0,0.08,0,1.945,0,1.945
	c-0.013,0-14.871,0-14.871,0C2.369-40.778,0.911-43.692,1.859-46.299z"/>
<g>
	<g>
		<path fill="#292D35" d="M71.331-14.133h-0.658c0.109-0.312,0.172-0.641,0.172-0.975c0-1.532-1.184-2.791-2.686-2.913
			c-0.556-0.629-1.341-0.985-2.188-0.985s-1.631,0.355-2.187,0.985c-0.66,0.053-1.248,0.334-1.71,0.752v-2.225
			c0-0.27-0.22-0.486-0.488-0.486c-1.423,0-2.673,0.898-3.169,2.177c-0.005,0-0.013-0.004-0.018-0.004
			c-0.147,0.022-0.255,0.052-0.346,0.145c-0.947,0.957-1.089,2.411-0.447,3.528h-0.893c-0.271,0-0.487,0.218-0.487,0.486
			c0,2.985,1.945,5.666,4.872,6.777v1.02c0,0.271,0.218,0.487,0.487,0.487h4.872c0.27,0,0.487-0.218,0.487-0.487v-1.02
			c2.929-1.111,4.871-3.794,4.871-6.777C71.82-13.915,71.601-14.133,71.331-14.133z M64.023-17.056c0.153,0,0.297-0.072,0.389-0.192
			c0.748-0.992,2.373-0.992,3.121,0c0.092,0.123,0.235,0.192,0.389,0.192c1.074,0,1.949,0.875,1.949,1.949
			c0,0.348-0.113,0.68-0.287,0.975h-2.148l0.779-0.585c0.215-0.162,0.258-0.466,0.096-0.681c-0.16-0.216-0.465-0.262-0.682-0.099
			L66.46-14.62v-0.976c0-0.268-0.219-0.484-0.486-0.484c-0.27,0-0.488,0.217-0.488,0.484v0.976l-1.169-0.877
			c-0.215-0.16-0.52-0.116-0.683,0.098c-0.162,0.215-0.117,0.519,0.098,0.681l0.78,0.585h-2.149
			c-0.173-0.295-0.286-0.627-0.286-0.975C62.074-16.183,62.949-17.056,64.023-17.056z M61.099-18.956v3.646l-1.863-1.863
			C59.46-18.073,60.193-18.77,61.099-18.956z M58.447-16.584l2.451,2.45h-2.057c-0.031-0.026-0.063-0.049-0.094-0.08
			C58.111-14.855,58.01-15.835,58.447-16.584z M66.306-7.677c-0.199,0.064-0.334,0.252-0.334,0.462v0.878h-3.896v-0.878
			c0-0.21-0.137-0.396-0.335-0.462c-2.55-0.841-4.313-3.006-4.519-5.48h13.603C70.618-10.683,68.855-8.518,66.306-7.677z"/>
	</g>
</g>
<g>
	<g>
		<g>
			<path fill="#292D35" d="M28.537,19.316c0-0.746-0.305-1.414-0.792-1.74l-0.001-0.001l-6.73-4.511
				c-0.008-0.006-0.02-0.007-0.029-0.012c-0.029-0.017-0.059-0.026-0.09-0.036c-0.029-0.01-0.059-0.021-0.09-0.024
				c-0.029-0.004-0.058-0.001-0.087,0c-0.033,0.002-0.065,0.003-0.097,0.011c-0.027,0.007-0.053,0.02-0.08,0.032
				c-0.031,0.015-0.063,0.029-0.09,0.05c-0.008,0.006-0.018,0.008-0.025,0.015l-0.398,0.341c-0.205,0.174-0.23,0.482-0.055,0.687
				c0.096,0.113,0.232,0.17,0.37,0.17c0.112,0,0.224-0.039,0.315-0.117l0.119-0.102l5.143,3.448l-10.911,1.559l1.258-1.087
				c0.204-0.176,0.226-0.484,0.05-0.688c-0.176-0.205-0.483-0.224-0.687-0.05l-2.514,2.173c-0.009,0.007-0.011,0.018-0.019,0.024
				c-0.026,0.026-0.048,0.056-0.067,0.088c-0.014,0.021-0.028,0.039-0.038,0.063c-0.014,0.031-0.02,0.064-0.026,0.1
				c-0.006,0.025-0.014,0.049-0.015,0.075c0,0.007-0.003,0.012-0.003,0.019v2.924v2.922c0,0.143,0.062,0.277,0.168,0.369
				c0.089,0.076,0.203,0.119,0.319,0.119c0.022,0,0.046-0.002,0.068-0.006l13.642-1.947c0.006-0.002,0.012-0.006,0.018-0.008
				c0.777-0.059,1.375-0.883,1.375-1.938c0-0.59-0.191-1.105-0.494-1.461C28.346,20.422,28.537,19.906,28.537,19.316z
				 M27.076,23.213c-0.012,0-0.021,0.006-0.033,0.008c-0.012,0-0.023-0.004-0.035-0.002l-13.086,1.869v-1.939l13.164-1.881
				c0.198,0.01,0.479,0.385,0.479,0.971C27.564,22.834,27.275,23.213,27.076,23.213z M27.076,20.291
				c-0.012,0-0.022,0.006-0.034,0.006c-0.012,0.002-0.022-0.004-0.035-0.002l-13.085,1.87v-1.94l13.165-1.879
				c0.037,0.002,0.073,0.013,0.114,0.041c0.176,0.116,0.363,0.458,0.363,0.93C27.564,19.91,27.275,20.291,27.076,20.291z"/>
		</g>
	</g>
	<g>
		<g>
			<path fill="#292D35" d="M18.811,14.539c-0.029-0.643-0.31-1.517-1.261-1.993c-0.24-0.119-0.532-0.022-0.653,0.217
				c-0.12,0.241-0.023,0.534,0.217,0.654c0.572,0.286,0.701,0.782,0.723,1.11c-0.574,0.198-0.991,0.738-0.991,1.378
				c0,0.806,0.655,1.461,1.462,1.461c0.805,0,1.461-0.656,1.461-1.461C19.768,15.277,19.367,14.744,18.811,14.539z M18.307,16.392
				c-0.269,0-0.488-0.218-0.488-0.487s0.22-0.487,0.488-0.487c0.268,0,0.486,0.218,0.486,0.487S18.574,16.392,18.307,16.392z"/>
		</g>
	</g>
</g>
</svg>
