<?xml version="1.0" encoding="utf-8"?>
<!-- Generator: Adobe Illustrator 16.0.3, SVG Export Plug-In . SVG Version: 6.00 Build 0)  -->
<!DOCTYPE svg PUBLIC "-//W3C//DTD SVG 1.1//EN" "http://www.w3.org/Graphics/SVG/1.1/DTD/svg11.dtd">
<svg version="1.1" id="Layer_1" xmlns="http://www.w3.org/2000/svg" xmlns:xlink="http://www.w3.org/1999/xlink" x="0px" y="0px"
	 width="39.686px" height="39.684px" viewBox="0 0 39.686 39.684" enable-background="new 0 0 39.686 39.684" xml:space="preserve">
<path fill="#46B978" d="M11.993,33.327c-0.917-0.335-1.8-0.757-2.628-1.307c-0.814-0.541-1.605-1.247-2.229-2.007
	c-1.045-1.271-2.03-2.637-2.721-4.136c-0.735-1.602-1.045-3.308-1.363-5.025c-0.047-0.25-0.233-0.492-0.028-0.679
	c0.259-0.231,1.03-0.016,1.348-0.017c0.553-0.002,1.105-0.002,1.658,0c1.076,0.001,2.151,0.006,3.229,0.005c2.989,0,5.979,0,8.97,0
	c0.081,0,1.946,0,1.946,0c0,0.013,0,14.872,0,14.872C17.476,34.526,14.6,34.277,11.993,33.327z"/>
<circle fill="#FFFFFF" cx="19.455" cy="20.009" r="10.323"/>
<path fill="#292D35" d="M26.528,37.43c2.313-0.896,4.482-2.275,6.35-4.144c1.93-1.93,3.341-4.185,4.232-6.589
	c1.19-3.208,1.462-6.685,0.813-10.011c-0.682-3.475-2.359-6.785-5.045-9.472c-7.188-7.188-18.887-7.188-26.071,0
	c-7.188,7.188-7.188,18.882,0,26.07c2.607,2.61,5.813,4.271,9.184,4.986C19.486,39.015,23.16,38.734,26.528,37.43z M9.688,10.102
	c5.601-5.597,14.707-5.598,20.301,0c1.922,1.922,3.186,4.258,3.785,6.724c1.15,4.713-0.108,9.902-3.785,13.576
	c-3.733,3.734-9.033,4.979-13.812,3.726c-2.379-0.622-4.629-1.864-6.49-3.726C4.092,24.806,4.092,15.698,9.688,10.102z"/>
<path fill="#F2D175" d="M109.26,30.48c-0.335-0.917-0.742-2.55-1.292-3.379c-0.541-0.814-1.086-1.563-1.844-2.188
	c-1.273-1.044-3.223-2.624-4.722-3.313c-1.602-0.733-3.652-0.242-5.375-0.563c-0.25-0.047-0.764,0.358-0.764,0.358
	s-0.019,2.452-0.017,3.007c0.001,1.075,0.006,2.15,0.005,3.229c0,2.989,0,5.979,0,8.97c0,0.08,0,1.945,0,1.945
	c0.013,0,14.871,0,14.871,0C109.616,35.854,110.209,33.086,109.26,30.48z"/>
<path fill="#46B978" d="M1.859-46.299c0.335-0.917,2.467-1.763,3.018-2.592c0.541-0.814,1.247-1.604,2.005-2.229
	c1.271-1.044,2.169-2.576,3.669-3.265c1.602-0.736,3.774-0.5,5.495-0.819c0.25-0.047,0.676-0.029,0.676-0.029
	s0.018,2.453,0.016,3.007c-0.001,1.075-0.006,2.151-0.004,3.229c0,2.989,0,5.979,0,8.969c0,0.08,0,1.945,0,1.945
	c-0.013,0-14.871,0-14.871,0C2.369-40.778,0.911-43.692,1.859-46.299z"/>
<g>
	<g>
		<path fill="#292D35" d="M27.152,18.117h-0.537c-0.246-2.187-2.084-3.897-4.336-3.897c-0.432,0-0.846,0.08-1.244,0.205
			c-0.85-0.726-1.937-1.18-3.14-1.18c-2.687,0-4.872,2.186-4.872,4.872h-0.486c-0.27,0-0.488,0.218-0.488,0.487
			c0,2.983,1.943,5.665,4.873,6.774v1.021c0,0.268,0.218,0.486,0.486,0.486h4.872c0.27,0,0.488-0.219,0.488-0.486v-1.021
			c2.93-1.109,4.871-3.791,4.871-6.774C27.638,18.335,27.421,18.117,27.152,18.117z M22.279,15.195c1.715,0,3.123,1.274,3.361,2.923
			h-0.975c-0.221-1.085-1.166-1.903-2.309-1.94c-0.146-0.338-0.338-0.647-0.555-0.939C21.96,15.214,22.116,15.195,22.279,15.195z
			 M23.652,18.117h-0.885c0-0.313-0.037-0.616-0.092-0.913C23.13,17.333,23.493,17.674,23.652,18.117z M17.894,14.22
			c2.15,0,3.898,1.748,3.898,3.897h-0.975c0-1.611-1.311-2.923-2.923-2.923c-1.611,0-2.923,1.312-2.923,2.923h-0.975
			C13.997,15.968,15.745,14.22,17.894,14.22z M19.844,18.117h-3.897c0-1.075,0.874-1.948,1.948-1.948
			C18.969,16.169,19.844,17.042,19.844,18.117z M22.128,24.573c-0.201,0.066-0.336,0.252-0.336,0.463v0.877h-3.898v-0.877
			c0-0.211-0.135-0.396-0.335-0.463c-2.547-0.84-4.311-3.006-4.516-5.48h13.602C26.439,21.567,24.675,23.733,22.128,24.573z"/>
	</g>
</g>
</svg>
