<?xml version="1.0" encoding="utf-8"?>
<!-- Generator: Adobe Illustrator 16.0.3, SVG Export Plug-In . SVG Version: 6.00 Build 0)  -->
<!DOCTYPE svg PUBLIC "-//W3C//DTD SVG 1.1//EN" "http://www.w3.org/Graphics/SVG/1.1/DTD/svg11.dtd">
<svg version="1.1" id="Layer_1" xmlns="http://www.w3.org/2000/svg" xmlns:xlink="http://www.w3.org/1999/xlink" x="0px" y="0px"
	 width="39.686px" height="39.684px" viewBox="0 0 39.686 39.684" enable-background="new 0 0 39.686 39.684" xml:space="preserve">
<path fill="#F2D175" d="M23.54,35.041c-0.887,0.411-1.81,0.735-2.782,0.934c-0.959,0.195-2.018,0.255-2.994,0.159
	c-1.639-0.162-3.301-0.43-4.849-1.001c-1.652-0.613-3.078-1.601-4.52-2.591c-0.21-0.146-0.513-0.186-0.499-0.46
	c0.021-0.349,0.719-0.738,0.939-0.963c0.39-0.395,0.781-0.784,1.174-1.176c0.761-0.76,1.525-1.517,2.287-2.277
	c2.114-2.114,4.228-4.229,6.342-6.343c0.06-0.06,1.376-1.376,1.376-1.376c0.009,0.009,10.515,10.515,10.515,10.515
	C28.265,32.012,26.055,33.869,23.54,35.041z"/>
<circle fill="#FFFFFF" cx="19.455" cy="20.009" r="10.323"/>
<path fill="#292D35" d="M36.719,27.666c1-2.271,1.559-4.78,1.558-7.419c0-2.729-0.597-5.321-1.665-7.653
	c-1.428-3.109-3.689-5.759-6.506-7.652c-2.937-1.976-6.466-3.129-10.264-3.129c-10.166,0-18.435,8.271-18.435,18.437
	c0,10.166,8.27,18.434,18.434,18.434c3.688,0.002,7.133-1.091,10.021-2.969C32.862,33.765,35.259,30.969,36.719,27.666z
	 M5.488,20.249C5.49,12.333,11.929,5.893,19.843,5.894c2.718,0,5.262,0.76,7.43,2.079c4.146,2.521,6.924,7.079,6.924,12.275
	c0,5.283-2.867,9.909-7.133,12.398c-2.121,1.242-4.59,1.956-7.223,1.955C11.928,34.604,5.487,28.163,5.488,20.249z"/>
<path fill="#F2D175" d="M109.26,30.48c-0.335-0.917-0.742-2.55-1.292-3.379c-0.541-0.813-1.086-1.563-1.844-2.188
	c-1.273-1.044-3.224-2.624-4.723-3.313c-1.602-0.732-3.651-0.242-5.375-0.563c-0.25-0.047-0.764,0.357-0.764,0.357
	s-0.019,2.452-0.017,3.007c0.001,1.075,0.006,2.15,0.005,3.229c0,2.989,0,5.979,0,8.97c0,0.08,0,1.945,0,1.945
	c0.013,0,14.871,0,14.871,0C109.616,35.854,110.209,33.086,109.26,30.48z"/>
<g>
	<g>
		<path fill="#292D35" d="M28.015,20.503c-0.002-0.01,0.001-0.018-0.001-0.027c-0.004-0.021-0.018-0.039-0.025-0.059
			c-0.012-0.031-0.023-0.063-0.042-0.092c-0.018-0.027-0.038-0.049-0.061-0.072c-0.021-0.021-0.039-0.043-0.063-0.061
			c-0.03-0.021-0.064-0.037-0.1-0.053c-0.018-0.007-0.03-0.02-0.048-0.024c-0.008-0.002-0.015,0-0.022-0.002
			c-0.034-0.009-0.068-0.009-0.104-0.011c-0.032,0-0.063-0.002-0.095,0.004c-0.009,0.002-0.017-0.001-0.025,0.001
			c-0.102,0.022-0.211,0.036-0.303,0.036c-0.81,0-1.47-0.66-1.47-1.47c0-0.132,0.021-0.271,0.06-0.399
			c0.002-0.006,0-0.012,0.002-0.018c0.002-0.008,0.007-0.014,0.008-0.02c0.006-0.027,0-0.053,0.001-0.08
			c0.001-0.032,0.006-0.064,0.001-0.096c-0.005-0.033-0.018-0.06-0.028-0.09c-0.011-0.029-0.019-0.059-0.035-0.085
			c-0.016-0.027-0.038-0.048-0.06-0.071c-0.021-0.023-0.039-0.048-0.064-0.067c-0.025-0.02-0.056-0.031-0.086-0.046
			c-0.023-0.012-0.043-0.028-0.068-0.036c-0.008-0.002-0.014,0-0.021-0.002s-0.012-0.007-0.018-0.008
			c-0.673-0.142-1.161-0.744-1.161-1.432c0-0.325,0.112-0.645,0.315-0.9c0.016-0.019,0.021-0.042,0.032-0.062
			s0.029-0.035,0.038-0.058c0.004-0.009,0.002-0.019,0.005-0.028c0.011-0.033,0.015-0.066,0.019-0.099
			c0.004-0.03,0.009-0.059,0.007-0.088c-0.002-0.032-0.011-0.062-0.02-0.092c-0.008-0.029-0.014-0.059-0.027-0.087
			c-0.013-0.027-0.032-0.051-0.052-0.075c-0.02-0.028-0.038-0.053-0.063-0.077c-0.008-0.007-0.011-0.016-0.019-0.022
			c-0.019-0.015-0.041-0.02-0.061-0.03c-0.021-0.012-0.036-0.03-0.059-0.04c-0.014-0.006-0.029-0.008-0.043-0.013
			c-0.007-0.002-0.014-0.005-0.021-0.006c-0.465-0.181-0.987-0.282-1.521-0.282h-4.899c-2.359,0-4.275,1.867-4.388,4.199
			c-0.603,0.341-1.001,0.968-1.001,1.681c0,0.723,0.397,1.348,0.98,1.688v0.762c0,1.35,1.099,2.449,2.45,2.449h8.818
			c1.351,0,2.449-1.1,2.449-2.449v-0.779c0.371-0.219,0.661-0.549,0.817-0.959c0.011-0.016,0.017-0.035,0.025-0.053
			c0.01-0.027,0.03-0.049,0.039-0.078c0.003-0.01,0-0.018,0.002-0.027c0.008-0.031,0.008-0.063,0.009-0.096
			S28.021,20.534,28.015,20.503z M17.817,15.244h4.899c0.231,0,0.458,0.026,0.676,0.071c-0.117,0.288-0.186,0.596-0.186,0.909
			c0,0.792,0.393,1.509,1.002,1.959h-9.771C14.677,16.526,16.094,15.244,17.817,15.244z M26.146,22.593
			c0,0.811-0.659,1.471-1.47,1.471h-8.818c-0.811,0-1.47-0.66-1.47-1.471v-0.49h11.758V22.593z M26.457,21.072
			c-0.005,0.002-0.01,0.002-0.014,0.004c-0.095,0.031-0.195,0.049-0.298,0.049H14.387c-0.54,0-0.979-0.441-0.979-0.98
			c0-0.416,0.261-0.785,0.662-0.924c0.105-0.039,0.203-0.057,0.317-0.057h10.338c0.188,0.918,0.893,1.645,1.795,1.875
			C26.498,21.048,26.48,21.064,26.457,21.072z"/>
	</g>
</g>
</svg>
