<?xml version="1.0" encoding="utf-8"?>
<!-- Generator: Adobe Illustrator 16.0.3, SVG Export Plug-In . SVG Version: 6.00 Build 0)  -->
<!DOCTYPE svg PUBLIC "-//W3C//DTD SVG 1.1//EN" "http://www.w3.org/Graphics/SVG/1.1/DTD/svg11.dtd">
<svg version="1.1" id="Capa_1" xmlns="http://www.w3.org/2000/svg" xmlns:xlink="http://www.w3.org/1999/xlink" x="0px" y="0px"
	 width="39.686px" height="33.487px" viewBox="236.157 239.256 39.686 33.487"
	 enable-background="new 236.157 239.256 39.686 33.487" xml:space="preserve">
<path d="M271.18,264.66h-12.488c-0.428,0-0.774,0.347-0.774,0.774h-19.729c-0.428,0-0.775,0.347-0.775,0.775
	c0,2.128,1.292,3.888,3.736,5.088c1.842,0.905,4.336,1.445,6.672,1.445h5.253c1.512,0,2.784-1.045,3.132-2.451h1.711v0.406
	c0,0.429,0.347,0.775,0.774,0.775h12.488c1.879,0,3.407-1.528,3.407-3.407C274.587,266.188,273.059,264.66,271.18,264.66
	L271.18,264.66z M255.526,268.742c-0.428,0-0.775,0.348-0.775,0.775c0,0.924-0.752,1.676-1.676,1.676h-5.253
	c-3.39,0-8.055-1.313-8.766-4.209h18.862v1.758H255.526L255.526,268.742z M271.18,269.924h-11.713v-3.714h11.713
	c1.024,0,1.857,0.833,1.857,1.856C273.037,269.091,272.204,269.924,271.18,269.924z"/>
<path d="M274.856,248.607c-0.685-0.729-1.651-1.148-2.652-1.148c-0.572,0-1.142,0.136-1.648,0.394
	c-0.276,0.141-0.905,0.316-1.51,0.46v-6.513c0-1.403-1.142-2.545-2.545-2.545h-27.798c-1.403,0-2.545,1.142-2.545,2.545v18.594
	c0,1.403,1.142,2.546,2.545,2.546H266.5c1.403,0,2.545-1.143,2.545-2.546v-6.522c0.596,0.137,1.195,0.303,1.442,0.436
	c0.527,0.282,1.117,0.429,1.718,0.429c0.059,0,0.117-0.001,0.176-0.004c1.822-0.087,3.34-1.582,3.454-3.401
	C275.899,250.315,275.551,249.348,274.856,248.607L274.856,248.607z M267.495,260.396c0,0.549-0.446,0.996-0.995,0.996h-27.798
	c-0.549,0-0.995-0.447-0.995-0.996v-18.594c0-0.549,0.446-0.995,0.995-0.995H266.5c0.549,0,0.995,0.446,0.995,0.995V260.396z
	 M274.288,251.235c-0.065,1.043-0.936,1.9-1.981,1.951c-0.381,0.018-0.757-0.066-1.088-0.243c-0.509-0.272-1.501-0.515-2.174-0.658
	v-2.379c0.671-0.151,1.695-0.407,2.213-0.67c0.294-0.149,0.611-0.226,0.945-0.226c0.583,0,1.124,0.234,1.523,0.659
	C274.125,250.093,274.324,250.649,274.288,251.235L274.288,251.235z"/>
<g>
	<path fill="#5DB72E" d="M256.786,249.337c0.967-0.617,2.286-0.79,3.424-0.612c0.159-0.403,0.273-1.014-0.031-1.32
		C259.28,246.506,256.693,248.73,256.786,249.337z"/>
	<path fill="#5DB72E" d="M259.192,255.076c0.436,0.105,0.796,0.055,0.987-0.137c0.305-0.306,0.19-0.917,0.031-1.32
		c-1.138,0.178-2.457,0.005-3.424-0.612C256.764,253.153,257.762,254.731,259.192,255.076z"/>
	<path fill="#5DB72E" d="M256.918,251.172c0,0.718,1.226,1.254,2.429,1.254c1.4,0,2.453-0.661,2.453-1.254
		c0-0.593-1.051-1.255-2.453-1.255C258.143,249.917,256.918,250.455,256.918,251.172z"/>
	<path fill="#EF8E1B" d="M255.463,253.129c0.179-0.537,0.198-1.207,0.198-1.957c0-0.741-0.018-1.418-0.198-1.958
		c-0.245-0.736-0.79-1.222-1.994-1.396l-1.258-0.072c-1.337,0.014-2.957,0.271-4.436,0.688l-1.258,0.408
		c-0.955,0.351-3.098,1.313-3.098,2.33c0,1.115,2.779,2.568,6.309,3.18l1.258,0.173c0.468,0.048,0.919,0.072,1.34,0.072
		C254.353,254.598,255.151,254.067,255.463,253.129z"/>
	<path d="M256.589,254.902c1.394,1.452,3.411,1.995,4.479,0.926c0.659-0.659,0.674-1.671,0.354-2.561
		c0.994-0.446,1.637-1.21,1.637-2.095c0-0.885-0.643-1.649-1.637-2.096c0.32-0.89,0.304-1.903-0.354-2.561
		c-1.072-1.072-3.09-0.521-4.479,0.926c-0.14,0.145-0.272,0.299-0.397,0.461c-0.067-0.091-0.139-0.177-0.215-0.259
		c-0.735-0.788-1.908-1.157-3.651-1.157c-3.393,0-10.166,1.681-10.166,4.685c0,2.995,6.741,4.684,10.166,4.684
		c1.743,0,2.917-0.37,3.651-1.157c0.076-0.082,0.148-0.168,0.215-0.259C256.317,254.603,256.45,254.757,256.589,254.902z
		 M260.21,253.619c0.159,0.403,0.273,1.014-0.031,1.32c-0.191,0.192-0.552,0.242-0.987,0.137c-1.43-0.345-2.428-1.922-2.405-2.069
		C257.753,253.624,259.073,253.797,260.21,253.619z M261.8,251.172c0,0.594-1.053,1.254-2.453,1.254
		c-1.203,0-2.429-0.537-2.429-1.254s1.225-1.255,2.429-1.255C260.749,249.917,261.8,250.58,261.8,251.172z M260.179,247.405
		c0.305,0.306,0.19,0.917,0.031,1.32c-1.138-0.178-2.457-0.005-3.424,0.612C256.693,248.73,259.28,246.506,260.179,247.405z
		 M250.986,254.526l-1.258-0.173c-3.53-0.612-6.309-2.065-6.309-3.18c0-1.017,2.144-1.979,3.098-2.33l1.258-0.408
		c1.479-0.417,3.099-0.674,4.436-0.688l1.258,0.072c1.205,0.175,1.75,0.66,1.994,1.396c0.18,0.54,0.198,1.216,0.198,1.958
		c0,0.75-0.019,1.42-0.198,1.957c-0.312,0.938-1.11,1.469-3.137,1.469C251.905,254.598,251.453,254.574,250.986,254.526z"/>
</g>
</svg>
