<?xml version="1.0" encoding="utf-8"?>
<!-- Generator: Adobe Illustrator 16.0.3, SVG Export Plug-In . SVG Version: 6.00 Build 0)  -->
<!DOCTYPE svg PUBLIC "-//W3C//DTD SVG 1.1//EN" "http://www.w3.org/Graphics/SVG/1.1/DTD/svg11.dtd">
<svg version="1.1" id="Layer_1" xmlns="http://www.w3.org/2000/svg" xmlns:xlink="http://www.w3.org/1999/xlink" x="0px" y="0px"
	 width="39.686px" height="39.684px" viewBox="0 0 39.686 39.684" enable-background="new 0 0 39.686 39.684" xml:space="preserve">
<path fill="#45B978" d="M32.918,28.093c-0.335,0.917-0.757,1.8-1.307,2.628c-0.541,0.816-1.247,1.607-2.005,2.229
	c-1.273,1.045-2.637,2.03-4.136,2.721c-1.602,0.735-3.308,1.045-5.027,1.363c-0.25,0.047-0.492,0.233-0.677,0.028
	c-0.232-0.259-0.016-1.03-0.017-1.346c-0.002-0.553-0.002-1.107,0-1.66c0.001-1.076,0.006-2.151,0.005-3.229c0-2.989,0-5.979,0-8.97
	c0-0.081,0-1.945,0-1.945c0.013,0,14.871,0,14.871,0C34.116,22.61,33.867,25.486,32.918,28.093z"/>
<circle fill="#FFFFFF" cx="19.455" cy="20.009" r="10.323"/>
<path fill="#292D35" d="M37.02,13.56c-0.897-2.313-2.277-4.482-4.144-6.348c-1.93-1.93-4.185-3.341-6.589-4.234
	c-3.208-1.19-6.683-1.462-10.011-0.811c-3.473,0.68-6.785,2.359-9.47,5.045c-7.188,7.188-7.188,18.884,0,26.069
	c7.188,7.188,18.882,7.188,26.068,0c2.61-2.607,4.272-5.814,4.986-9.184C38.605,20.6,38.324,16.927,37.02,13.56z M9.693,30.398
	c-5.595-5.599-5.596-14.705,0-20.3c1.922-1.922,4.258-3.184,6.724-3.785c4.713-1.15,9.9,0.11,13.574,3.785
	c3.736,3.735,4.979,9.035,3.726,13.811c-0.622,2.379-1.864,4.629-3.726,6.49C24.396,35.994,15.289,35.994,9.693,30.398z"/>
<g>
	<path fill="#292D35" d="M25.436,16.32h-0.364v-0.58c0-0.163-0.132-0.295-0.294-0.295h-7.573l-0.779-3.307
		c-0.001-0.004-0.002-0.008-0.003-0.012c-0.137-0.485-0.643-0.768-1.128-0.63c-0.234,0.066-0.429,0.22-0.548,0.433
		c-0.118,0.211-0.147,0.455-0.083,0.687l0.652,2.83h-0.797c-0.163,0-0.294,0.132-0.294,0.295v0.58h-0.364
		c-0.546,0-0.991,0.445-0.991,0.991c0,0.545,0.444,0.99,0.991,0.99h0.364v4.225c0,0.807,0.642,1.465,1.44,1.492
		c-0.015,0.057-0.022,0.113-0.022,0.166c0,0.131,0.026,0.254,0.072,0.367H15.24c-0.711,0-1.29,0.578-1.29,1.291v0.439
		c0,0.162,0.132,0.293,0.295,0.293h10.806c0.163,0,0.295-0.131,0.295-0.293v-0.439c0-0.713-0.578-1.291-1.289-1.291h-0.475
		c0.047-0.113,0.073-0.236,0.073-0.367c0-0.053-0.008-0.109-0.022-0.166c0.799-0.027,1.439-0.686,1.439-1.492v-4.225h0.364
		c0.546,0,0.991-0.445,0.991-0.99C26.427,16.764,25.982,16.32,25.436,16.32L25.436,16.32z M14.813,18.234h9.669v2.39h-9.669V18.234z
		 M15.236,12.475c-0.001-0.005-0.002-0.009-0.003-0.014c-0.023-0.083-0.013-0.17,0.029-0.245c0.042-0.075,0.111-0.13,0.194-0.153
		c0.169-0.048,0.346,0.049,0.397,0.217l0.746,3.164h-0.677L15.236,12.475z M14.813,16.035h9.669v1.608h-9.669V16.035z
		 M13.459,17.311c0-0.222,0.179-0.401,0.4-0.401h0.364v0.801h-0.364C13.638,17.711,13.459,17.531,13.459,17.311z M16.232,24.184
		c0-0.096,0.159-0.334,0.367-0.568c0.208,0.234,0.367,0.473,0.367,0.568c0,0.203-0.166,0.367-0.367,0.367
		C16.396,24.551,16.232,24.387,16.232,24.184z M21.813,24.551h-1.281c0.047-0.113,0.073-0.236,0.073-0.367
		c0-0.053-0.008-0.109-0.022-0.164h1.18c-0.015,0.055-0.022,0.111-0.022,0.164C21.74,24.315,21.765,24.438,21.813,24.551
		L21.813,24.551z M20.015,24.184c0,0.203-0.166,0.367-0.367,0.367c-0.203,0-0.367-0.164-0.367-0.367
		c0-0.096,0.159-0.334,0.367-0.568C19.855,23.85,20.015,24.088,20.015,24.184z M18.764,24.551h-1.282
		c0.047-0.113,0.074-0.236,0.074-0.367c0-0.053-0.009-0.109-0.022-0.164h1.179c-0.015,0.055-0.022,0.111-0.022,0.164
		C18.691,24.315,18.717,24.438,18.764,24.551L18.764,24.551z M24.756,25.842v0.143H14.54v-0.143c0-0.387,0.314-0.701,0.7-0.701
		h8.817C24.441,25.141,24.756,25.455,24.756,25.842z M22.33,24.184c0-0.096,0.159-0.334,0.367-0.568
		c0.209,0.234,0.367,0.473,0.367,0.568c0,0.203-0.165,0.367-0.367,0.367S22.33,24.387,22.33,24.184z M23.581,23.428H23.31
		c-0.157-0.203-0.328-0.373-0.411-0.451c-0.113-0.107-0.291-0.107-0.404,0c-0.084,0.078-0.254,0.248-0.411,0.451H20.26
		c-0.157-0.203-0.327-0.373-0.41-0.451c-0.114-0.107-0.291-0.107-0.405,0c-0.083,0.078-0.253,0.248-0.411,0.451h-1.823
		c-0.158-0.203-0.328-0.373-0.41-0.451c-0.114-0.107-0.292-0.107-0.406,0c-0.083,0.078-0.252,0.248-0.41,0.451h-0.27
		c-0.498,0-0.902-0.404-0.902-0.902v-1.312h9.669v1.312C24.482,23.024,24.078,23.428,23.581,23.428L23.581,23.428z M25.436,17.711
		h-0.364V16.91h0.364c0.222,0,0.4,0.179,0.4,0.401C25.837,17.531,25.658,17.711,25.436,17.711z"/>
	<path fill="#292D35" d="M21.403,14.614c0.01,0.146,0.126,0.263,0.272,0.273c0.009,0,0.052,0.004,0.121,0.004
		c0.295,0,1.064-0.052,1.566-0.555c0.619-0.619,0.555-1.644,0.551-1.687c-0.01-0.146-0.127-0.263-0.273-0.274
		c-0.044-0.003-1.068-0.068-1.687,0.551C21.335,13.546,21.399,14.571,21.403,14.614z M22.371,13.344
		c0.266-0.266,0.675-0.348,0.946-0.372c-0.024,0.271-0.106,0.682-0.371,0.947c-0.267,0.266-0.675,0.348-0.946,0.372
		C22.024,14.018,22.106,13.609,22.371,13.344z"/>
	<path fill="#292D35" d="M20.563,13.459c0.551,0,0.999-0.449,0.999-1c0-0.551-0.448-1-0.999-1c-0.552,0-0.999,0.448-0.999,1
		C19.564,13.01,20.011,13.459,20.563,13.459z M20.563,12.051c0.226,0,0.408,0.184,0.408,0.409s-0.183,0.409-0.408,0.409
		s-0.409-0.184-0.409-0.409S20.338,12.051,20.563,12.051z"/>
	<path fill="#292D35" d="M19.031,14.91c0.471,0,0.854-0.383,0.854-0.854c0-0.47-0.383-0.853-0.854-0.853s-0.854,0.383-0.854,0.853
		C18.177,14.527,18.56,14.91,19.031,14.91L19.031,14.91z M19.031,13.794c0.145,0,0.263,0.118,0.263,0.262
		c0,0.146-0.118,0.263-0.263,0.263c-0.145,0-0.263-0.118-0.263-0.263C18.768,13.912,18.886,13.794,19.031,13.794z"/>
</g>
<path fill="#F2D175" d="M109.26,30.48c-0.335-0.917-0.742-2.55-1.292-3.379c-0.541-0.816-1.086-1.564-1.844-2.188
	c-1.273-1.044-3.221-2.624-4.72-3.313c-1.602-0.735-3.654-0.242-5.375-0.563c-0.25-0.047-0.764,0.36-0.764,0.36
	s-0.019,2.452-0.017,3.007c0.001,1.075,0.006,2.15,0.005,3.229c0,2.989,0,5.979,0,8.97c0,0.08,0,1.945,0,1.945
	c0.013,0,14.871,0,14.871,0C109.616,35.854,110.209,33.086,109.26,30.48z"/>
</svg>
