<?xml version="1.0" encoding="utf-8"?>
<!-- Generator: Adobe Illustrator 16.0.3, SVG Export Plug-In . SVG Version: 6.00 Build 0)  -->
<!DOCTYPE svg PUBLIC "-//W3C//DTD SVG 1.1//EN" "http://www.w3.org/Graphics/SVG/1.1/DTD/svg11.dtd">
<svg version="1.1" id="Capa_1" xmlns="http://www.w3.org/2000/svg" xmlns:xlink="http://www.w3.org/1999/xlink" x="0px" y="0px"
	 width="34.32px" height="31.181px" viewBox="294.428 217.781 34.32 31.181" enable-background="new 294.428 217.781 34.32 31.181"
	 xml:space="preserve">
<path fill="#282C34" d="M312.589,219.633c-0.275,0-2.531,0.227-2.531,0.227c-6.611,1.196-11.642,6.991-11.642,13.938
	c0,3.521,1.281,6.856,3.623,9.46l-0.959,1.975c-0.135,0.28-0.108,0.61,0.07,0.864s0.48,0.391,0.789,0.358l3.581-0.377
	c1.408,0.811,2.943,1.37,4.537,1.658l1.71,0.202c0.272,0.016,0.547,0.024,0.821,0.024c7.815,0,14.173-6.354,14.173-14.165
	C326.762,225.987,320.404,219.633,312.589,219.633z M312.589,246.253c-2.274,0-4.499-0.618-6.435-1.787
	c-0.134-0.08-0.287-0.123-0.442-0.123c-0.029,0-0.06,0.002-0.09,0.005l-2.331,0.246l0.543-1.12c0.157-0.324,0.094-0.713-0.158-0.971
	c-2.289-2.341-3.55-5.432-3.55-8.706c0-6.867,5.591-12.455,12.463-12.455s12.463,5.588,12.463,12.455
	C325.052,240.665,319.461,246.253,312.589,246.253z"/>
<path fill="#21C87A" d="M316.339,228.824c-0.085,0-0.171,0.004-0.256,0.011c-0.729-1.202-2.055-1.97-3.494-1.97
	c-1.438,0-2.766,0.768-3.493,1.97c-0.085-0.007-0.171-0.011-0.257-0.011c-1.722,0-3.123,1.396-3.123,3.113
	c0,1.364,0.885,2.526,2.112,2.946l0.269,3.497c0.034,0.445,0.405,0.789,0.853,0.789h7.28c0.447,0,0.818-0.344,0.853-0.789
	l0.269-3.497c1.228-0.42,2.111-1.582,2.111-2.946C319.462,230.22,318.061,228.824,316.339,228.824L316.339,228.824z
	 M309.741,237.461l-0.191-2.491c0.387-0.09,0.753-0.253,1.079-0.48c0.598,0.326,1.273,0.5,1.96,0.5c0.688,0,1.363-0.174,1.96-0.5
	c0.326,0.228,0.692,0.391,1.08,0.48l-0.191,2.491H309.741z M316.339,233.342c-0.411,0-0.801-0.177-1.07-0.487
	c-0.169-0.193-0.406-0.294-0.646-0.294c-0.19,0-0.381,0.063-0.539,0.191c-0.427,0.346-0.943,0.528-1.495,0.528
	s-1.068-0.183-1.495-0.528c-0.357-0.291-0.882-0.245-1.185,0.103c-0.269,0.31-0.659,0.487-1.07,0.487
	c-0.778,0-1.413-0.63-1.413-1.404s0.635-1.404,1.413-1.404c0.157,0,0.312,0.025,0.458,0.075c0.438,0.148,0.913-0.076,1.076-0.508
	c0.344-0.913,1.235-1.526,2.216-1.526c0.981,0,1.872,0.613,2.217,1.526c0.162,0.432,0.639,0.656,1.075,0.508
	c0.147-0.05,0.302-0.075,0.458-0.075c0.779,0,1.414,0.63,1.414,1.404S317.118,233.342,316.339,233.342z"/>
</svg>
